<?xml version="1.0" standalone="no"?>
<!DOCTYPE svg PUBLIC "-//W3C//DTD SVG 1.1//EN" "http://www.w3.org/Graphics/SVG/1.1/DTD/svg11.dtd" >
<svg xmlns="http://www.w3.org/2000/svg" xmlns:xlink="http://www.w3.org/1999/xlink" version="1.1">
<metadata></metadata>
<defs>
<font id="plainbold" horiz-adv-x="1236" >
<font-face units-per-em="2048" ascent="1645" descent="-403" />
<missing-glyph horiz-adv-x="473" />
<glyph unicode="&#xfb01;" horiz-adv-x="1286" d="M190 1126q0 176 104.5 268.5t291.5 92.5q35 0 62.5 -3t43.5 -7v-236q-20 4 -51 4q-131 0 -131 -137v-33h182v-231h-182v-844h-320v844h-143v231h143v51zM840 0v1075h319v-1075h-319zM840 1464h319v-262h-319v262z" />
<glyph unicode="&#xfb02;" horiz-adv-x="1292" d="M190 1126q0 176 104.5 268.5t291.5 92.5q35 0 62.5 -3t43.5 -7v-236q-20 4 -51 4q-131 0 -131 -137v-33h182v-231h-182v-844h-320v844h-143v231h143v51zM840 0v1464h319v-1464h-319z" />
<glyph horiz-adv-x="0" />
<glyph unicode="&#xd;" horiz-adv-x="0" />
<glyph horiz-adv-x="0" />
<glyph horiz-adv-x="0" />
<glyph unicode=" "  horiz-adv-x="473" />
<glyph unicode="&#x09;" horiz-adv-x="473" />
<glyph unicode="&#xa0;" horiz-adv-x="473" />
<glyph unicode="!" horiz-adv-x="669" d="M500 0h-334v303h334v-303zM201 426q-4 96 -9.5 190.5t-10.5 192.5t-9 205.5t-4 228.5v221h334v-221q0 -121 -4 -228.5t-9.5 -205.5t-10.5 -192.5t-9 -190.5h-268v0z" />
<glyph unicode="&#x22;" horiz-adv-x="946" d="M557 924q0 8 -2 45t-5 90t-6 114.5t-6 119t-5.5 103.5t-2.5 68h308q0 -23 -2 -68.5t-5.5 -103t-6.5 -119t-6 -114.5t-5 -90t-2 -45h-254v0zM135 924q0 8 -2 45t-5 90t-6 114.5t-6 119t-5 103.5t-2 68h307q0 -23 -2 -68.5t-5 -103t-6.5 -119t-6.5 -114.5t-5 -90t-2 -45 h-254v0z" />
<glyph unicode="#" d="M506 633h192l45 213h-192zM174 0l90 442h-192l41 191h190l45 213h-194l41 190h192l88 428h203l-88 -428h192l88 428h203l-88 -428h180l-41 -190h-178l-45 -213h182l-41 -191h-180l-90 -442h-203l90 442h-192l-90 -442h-203z" />
<glyph unicode="$" d="M373 461q31 -197 258 -197q102 0 163.5 45t61.5 121q0 37 -14.5 61.5t-43 43t-71.5 33t-102 30.5l-101 29q-121 33 -207 72.5t-141 91t-80.5 117t-25.5 149.5q0 78 27.5 145.5t77.5 121.5t123 91t163 55v244h313v-241q176 -33 280.5 -138.5t114.5 -279.5h-335 q-16 82 -70.5 126t-153.5 44q-90 0 -139 -40t-49 -104q2 -72 48 -103.5t132 -55.5l113 -31q125 -35 216 -74t151.5 -89t90 -118.5t29.5 -163.5q0 -86 -30.5 -158.5t-86 -129t-134.5 -94t-177 -54.5v-274h-313v274q-199 35 -311.5 152t-120.5 299h344z" />
<glyph unicode="%" horiz-adv-x="1830" d="M1286 379q0 -104 27.5 -170t105.5 -66t104.5 65.5t26.5 170.5q0 111 -25.5 176.5t-105.5 65.5t-106.5 -66.5t-26.5 -175.5zM1421 -31q-172 0 -261 110.5t-89 303.5q0 188 88 300t260 112t260 -113t88 -301q0 -193 -87 -302.5t-259 -109.5zM1102 1464h190l-563 -1464h-190 zM279 1071q0 -104 27.5 -169.5t105.5 -65.5t104.5 65.5t26.5 169.5q0 111 -25.5 176.5t-105.5 65.5t-106.5 -66.5t-26.5 -175.5zM414 662q-172 0 -261.5 110.5t-89.5 302.5q0 188 88.5 300t260.5 112t260 -112.5t88 -301.5q0 -193 -87 -302t-259 -109z" />
<glyph unicode="&#x26;" horiz-adv-x="1433" d="M674 973q49 33 84 73.5t35 98.5q0 57 -36 92t-95 35q-57 0 -92 -35t-35 -92q0 -53 29.5 -101.5t76.5 -93.5zM563 637q-70 -41 -113.5 -94.5t-43.5 -128.5q0 -90 62 -142.5t155 -52.5q74 0 127 33t92 84l-27.5 27.5t-44.5 47t-77 85t-130 141.5zM1190 -31q-33 33 -62 64 q-25 27 -52 55.5t-44 50.5q-76 -78 -182.5 -123t-235.5 -45q-125 0 -222 33t-163.5 91.5t-101.5 140t-35 180.5q0 147 85 250.5t220 169.5q-59 57 -104 134t-45 171q0 76 29.5 140.5t85 111.5t132 74.5t169.5 27.5q90 0 165.5 -23.5t130 -67.5t85 -106.5t30.5 -138.5 q0 -117 -72.5 -211t-193.5 -160q47 -49 98 -107t103 -114q25 49 47 110.5t37 127.5l301 -19q-29 -129 -78 -239.5t-103 -184.5l197 -200l-221 -193v0z" />
<glyph unicode="'" horiz-adv-x="524" d="M135 924q0 8 -2 45t-5 90t-6 114.5t-6 119t-5 103.5t-2 68h307q0 -23 -2 -68.5t-5 -103t-6.5 -119t-6.5 -114.5t-5 -90t-2 -45h-254v0z" />
<glyph unicode="(" horiz-adv-x="694" d="M68 612q0 166 39.5 313.5t111.5 270.5t172.5 214t222.5 144v-284q-262 -254 -262 -654q0 -403 262 -653v-285q-123 51 -223 142.5t-173 212.5t-111.5 267t-38.5 312z" />
<glyph unicode=")" horiz-adv-x="694" d="M627 612q0 -166 -39 -312t-112 -267t-173 -212t-223 -143v285q262 250 262 653q0 399 -262 654v284q123 -53 223 -144t172 -214t112 -270.5t40 -313.5z" />
<glyph unicode="*" horiz-adv-x="876" d="M315 1464l39 -233l-209 110l-75 -235l231 -35l-168 -164l201 -145l104 211l105 -211l200 145l-168 164l232 35l-76 235l-211 -110l41 233h-246z" />
<glyph unicode="+" d="M96 817h385v389h275v-389h385v-266h-385v-389h-275v389h-385v266z" />
<glyph unicode="," horiz-adv-x="589" d="M307 -182h-280l147 522h324z" />
<glyph unicode="-" horiz-adv-x="854" d="M117 748h620v-277h-620v277z" />
<glyph unicode="." horiz-adv-x="567" d="M117 340h334v-340h-334v340z" />
<glyph unicode="/" horiz-adv-x="978" d="M639 1464h295l-590 -1679h-299z" />
<glyph unicode="0" horiz-adv-x="1306" d="M653 1499q172 0 281.5 -61.5t172 -168t87.5 -246.5t25 -296q0 -170 -25 -310.5t-89.5 -239.5t-174 -153.5t-277.5 -54.5q-170 0 -278.5 54.5t-173 153.5t-89 239.5t-24.5 310.5q0 156 24.5 296t87 246.5t172 168t281.5 61.5zM653 236q129 0 176.5 116.5t47.5 366.5 q0 260 -46.5 387t-177.5 127t-177 -127t-46 -387q0 -250 47 -366.5t176 -116.5z" />
<glyph unicode="1" horiz-adv-x="917" d="M45 979v231h33q147 0 239.5 66.5t126.5 187.5h287v-1464h-328v979h-358z" />
<glyph unicode="2" horiz-adv-x="1261" d="M84 0v264q70 53 122 94t104 83t113.5 91.5t147.5 118.5q137 113 190.5 202t53.5 177t-50 135t-138 47q-106 0 -154.5 -65.5t-48.5 -167.5h-328q0 119 37 215t105.5 163.5t167 104.5t225.5 37q123 0 221 -31.5t166.5 -90t105.5 -140.5t37 -184q0 -164 -95 -298t-243 -247 q-55 -43 -99 -75t-82 -59.5t-71.5 -53t-70.5 -56.5q35 2 60.5 2h60.5h548v-266h-1085z" />
<glyph unicode="3" horiz-adv-x="1265" d="M393 444q8 -102 65.5 -156.5t162.5 -54.5q113 0 168 56.5t55 148.5q0 111 -77 158t-218 47h-27v260q129 0 199 42t70 140q0 70 -48.5 111t-126.5 41q-76 0 -127 -42t-53 -132h-317q2 98 38 179t102.5 137.5t159.5 88t210 31.5q113 0 204 -28.5t155.5 -81t100 -126 t35.5 -161.5q0 -133 -63.5 -202t-169.5 -105v-4q51 -16 103.5 -44t95.5 -72t69.5 -106.5t26.5 -150.5q0 -102 -39 -185t-112.5 -141.5t-178 -91.5t-235.5 -33q-127 0 -229.5 32t-174.5 93.5t-113 149.5t-43 202h332z" />
<glyph unicode="4" horiz-adv-x="1323" d="M346 549q41 2 81 2h99h205v346q0 66 2 128t4 126h-4q-41 -72 -75.5 -130t-77.5 -124l-111 -168q-16 -27 -37.5 -57.5t-40.5 -59.5q-22 -32 -45 -63zM1255 285h-206v-285h-318v285h-684v254l623 925h379v-913h206v-266z" />
<glyph unicode="5" horiz-adv-x="1251" d="M418 424q12 -82 65.5 -134t147.5 -52q104 0 161.5 65.5t57.5 175.5q0 104 -57.5 170t-157.5 66q-76 0 -122 -35t-75 -84l-325 53l90 815h878v-270h-618q-10 -76 -19.5 -148.5t-21.5 -152.5h2q51 39 119.5 63.5t165.5 24.5q104 0 191 -34t150.5 -97.5t99.5 -153.5t36 -202 q0 -121 -40 -217.5t-114 -164t-177 -103.5t-228 -36q-121 0 -220.5 33t-172 92.5t-115.5 142.5t-51 183h350z" />
<glyph unicode="6" horiz-adv-x="1288" d="M655 711q-94 0 -156.5 -62.5t-62.5 -171.5t62.5 -172t158.5 -63t158 62.5t62 168.5q0 111 -63 174.5t-159 63.5zM844 1120q-18 55 -56 92t-122 37q-55 0 -99.5 -28.5t-74 -78.5t-45 -121t-15.5 -157q31 31 108.5 69t202.5 38q96 0 181.5 -31t148 -92.5t99 -152.5 t36.5 -210q0 -111 -36.5 -205t-108.5 -161.5t-175.5 -106.5t-234.5 -39q-274 0 -420.5 181.5t-146.5 517.5q0 195 35 349.5t107.5 263t185 165.5t268.5 57q117 0 204 -32.5t148.5 -86t98 -124t51.5 -146.5z" />
<glyph unicode="7" horiz-adv-x="1116" d="M215 0q102 317 240.5 619.5t298.5 570.5q-2 0 -2 2q-68 -4 -121 -3t-125 1h-457v274h1038v-262q-129 -217 -255.5 -513t-256.5 -689h-360z" />
<glyph unicode="8" horiz-adv-x="1271" d="M637 1241q-90 0 -141.5 -50t-51.5 -122t52.5 -122t140.5 -50t139 50t51 122t-51 122t-139 50zM635 645q-102 0 -164.5 -58.5t-62.5 -152.5q0 -88 61 -146.5t166 -58.5q102 0 162.5 57.5t60.5 147.5q0 94 -61.5 152.5t-161.5 58.5zM637 -33q-127 0 -230.5 31t-176 88 t-112.5 138t-40 182q0 272 299 374v4q-117 41 -179.5 122t-62.5 202q0 82 36 153.5t101.5 125t156.5 83t204 29.5q115 0 208 -29.5t158.5 -83t101.5 -125t36 -153.5q0 -121 -62.5 -202t-179.5 -122v-4q147 -53 223 -145t76 -229q0 -100 -40 -181.5t-112.5 -138.5t-175 -88 t-229.5 -31z" />
<glyph unicode="9" horiz-adv-x="1288" d="M633 758q94 0 156.5 62.5t62.5 170.5q0 109 -62.5 172.5t-158.5 63.5t-157.5 -62.5t-61.5 -169.5q0 -111 62.5 -174t158.5 -63zM444 346q18 -55 56.5 -92t122.5 -37q113 0 172 102.5t59 278.5q-16 -16 -43 -34.5t-65.5 -34t-89 -26.5t-111.5 -11q-96 0 -180 31.5 t-147.5 93t-99.5 152.5t-36 212q0 109 38 202t108.5 161.5t173 107.5t233.5 39q274 0 420.5 -182.5t146.5 -526.5q0 -195 -34.5 -348t-107.5 -258.5t-185.5 -162t-270.5 -56.5q-117 0 -205 33t-149.5 87t-99 124.5t-52.5 146.5z" />
<glyph unicode=":" horiz-adv-x="567" d="M117 1004h334v-340h-334v340zM117 340h334v-340h-334v340z" />
<glyph unicode=";" horiz-adv-x="616" d="M313 -182h-280l147 522h324zM166 1004h334v-340h-334v340z" />
<glyph unicode="&#x3c;" d="M1034 973l-596 -281v-6l596 -283v-311l-891 471v242l891 475v-307z" />
<glyph unicode="=" d="M109 633h1019v-275h-1019v275zM109 1018h1019v-275h-1019v275z" />
<glyph unicode="&#x3e;" d="M203 1280l891 -475v-242l-891 -471v311l596 283v6l-596 281v307z" />
<glyph unicode="?" horiz-adv-x="1144" d="M727 0h-334v303h334v-303zM63 1012q2 111 37 199.5t101.5 150t162 95.5t216.5 34t214 -32t155.5 -88t95 -131t32.5 -161q0 -115 -51 -204t-147 -166l-19 -15q-43 -35 -72.5 -63.5t-49 -57t-28 -63.5t-8.5 -84h-290q0 74 7 126t25.5 95t50 81t78.5 81l78 72q41 37 67.5 84 t26.5 108q0 68 -46 114t-128 46q-96 0 -142 -58.5t-44 -162.5h-322z" />
<glyph unicode="@" horiz-adv-x="1669" d="M870 940q-53 0 -94 -23.5t-69.5 -62.5t-44 -89t-15.5 -103q0 -82 42 -133.5t122 -51.5q53 0 95 23.5t71 63.5t43 91.5t14 106.5q0 84 -42 131t-122 47zM1286 1102l-90 -494q-8 -41 -11 -60.5t-3 -31.5q0 -45 47 -45q39 0 76.5 28.5t65.5 78t45.5 115t17.5 138.5 q0 111 -40 204t-112 161t-174 105.5t-227 37.5q-135 0 -249 -48t-196 -131t-128 -195.5t-46 -243.5q0 -135 46 -247t130 -193.5t200 -126.5t257 -45q135 0 240.5 33.5t201.5 93.5l99 -109q-111 -82 -246 -130t-301 -48q-182 0 -331.5 57t-256 160.5t-165 245t-58.5 309.5 q0 162 60.5 304t168 246.5t254 165t318.5 60.5q154 0 285.5 -48t229 -134t151.5 -204t54 -255q0 -117 -31.5 -216t-88 -173t-133 -116t-164.5 -42q-66 0 -108 30t-58 62q-35 -37 -96.5 -68.5t-147.5 -31.5q-147 0 -237.5 96.5t-90.5 261.5q0 92 30 176.5t83 149t128 102 t165 37.5q84 0 142.5 -33.5t92.5 -86.5q0 8 2.5 23t4.5 30.5t4 28t2 16.5h188z" />
<glyph unicode="A" horiz-adv-x="1474" d="M918 612q-29 90 -53.5 166t-47 144.5t-43 132t-41.5 131.5h-4q-39 -137 -87 -282.5t-95 -291.5h371zM-20 0q49 131 112.5 301t136 361.5t152.5 396.5t160 405h403q66 -176 135.5 -361t139 -372.5t138 -372t134.5 -358.5h-352q-33 88 -65 172t-64 174h-553l-131 -346h-346 v0z" />
<glyph unicode="B" horiz-adv-x="1335" d="M481 874h127q137 0 205 35t68 133q0 94 -66.5 124t-181.5 30h-152v-322zM481 268h121q74 0 133.5 7.5t102.5 27t65.5 55t22.5 93.5q0 100 -74 137t-193 37h-178v-357zM152 1464h387h98t94 -2q231 -8 355 -99t124 -276q0 -129 -75.5 -207.5t-192.5 -107.5 q59 -8 116.5 -31.5t102.5 -65.5t73 -105.5t28 -151.5q0 -96 -29 -166t-80 -118t-123 -76.5t-156 -43.5q-47 -8 -103 -11t-116 -3h-503v1464z" />
<glyph unicode="C" horiz-adv-x="1562" d="M1516 459q-72 -231 -253.5 -358.5t-449.5 -127.5q-166 0 -303 52.5t-234.5 149.5t-150.5 237.5t-53 318.5q0 174 54 314.5t152.5 239.5t235.5 152.5t303 53.5q268 0 450.5 -133t252.5 -369l-367 -2q-47 106 -131 164.5t-207 58.5q-184 0 -288.5 -130t-104.5 -351 q0 -106 26.5 -192t78 -147.5t124 -94.5t164.5 -33q117 0 197 52.5t129 144.5h375z" />
<glyph unicode="D" horiz-adv-x="1513" d="M487 285h115q133 0 219 26q129 39 196.5 141.5t67.5 282.5q0 170 -67.5 274.5t-196.5 145.5q-80 27 -198 27h-136v-897zM152 1464h364h104.5t106.5 -2q162 -6 294 -57t225 -143.5t143.5 -224.5t50.5 -300q0 -94 -20.5 -188t-59.5 -176t-94.5 -147.5t-122.5 -102.5 q-61 -43 -130 -67.5t-147 -37t-166 -15.5t-188 -3h-360v1464z" />
<glyph unicode="E" horiz-adv-x="1210" d="M483 287h639v-287h-970v1464h962v-286h-631v-297h580v-283h-580v-311z" />
<glyph unicode="F" horiz-adv-x="1173" d="M152 0v1464h946v-286h-611v-297h568v-283h-568v-598h-335z" />
<glyph unicode="G" horiz-adv-x="1619" d="M823 1491q268 0 447.5 -133t249.5 -369l-367 -2q-47 106 -129 164.5t-207 58.5q-92 0 -165.5 -34.5t-125 -97t-78 -149.5t-26.5 -192q0 -109 27.5 -197.5t79 -152t126 -97.5t170.5 -34q84 0 146.5 22.5t106.5 60.5t71 89t39 109q-49 -2 -93 -2h-96h-262v272h783v-807 h-314v78q0 25 1 45t1 37h-2q-61 -78 -177 -132.5t-275 -54.5q-152 0 -277 55.5t-215 155t-140 239.5t-50 310t53 309.5t151.5 239.5t236.5 154.5t310 54.5z" />
<glyph unicode="H" horiz-adv-x="1507" d="M152 0v1464h335v-565h533v565h336v-1464h-336v610h-533v-610h-335z" />
<glyph unicode="I" horiz-adv-x="638" d="M152 0v1464h335v-1464h-335z" />
<glyph unicode="J" horiz-adv-x="1101" d="M494 -31q-238 0 -349.5 113t-111.5 309h327q4 -49 29 -89t96 -40q45 0 73 17.5t42 52.5t19.5 90t5.5 129v913h338v-917q0 -139 -24 -246.5t-78 -181.5t-144 -112t-223 -38z" />
<glyph unicode="K" horiz-adv-x="1357" d="M152 0v1464h335v-649h5q104 164 219.5 321.5t238.5 327.5h404q-135 -174 -270.5 -341t-270.5 -339l576 -784h-414q-55 82 -119.5 175t-129 189.5t-125 189.5t-109.5 173h-5v-727h-335z" />
<glyph unicode="L" horiz-adv-x="1144" d="M487 1464v-1175h615v-289h-950v1464h335z" />
<glyph unicode="M" horiz-adv-x="1964" d="M152 1464h538l180 -614q29 -102 60 -212t59 -226h2q23 82 54.5 187.5t78.5 266.5l170 598h518v-1464h-315v684q0 133 2 251t6 234h-4q-18 -74 -49 -180t-66 -225l-225 -764h-350l-223 748q-47 156 -76 268t-39 153h-4q2 -57 3 -110t2 -108.5t1 -117v-137.5v-696h-323 v1464z" />
<glyph unicode="N" horiz-adv-x="1570" d="M1419 0h-428l-317 614q-76 147 -133.5 265t-81.5 184h-2q2 -45 3 -101.5t1 -119v-125v-119.5v-598h-309v1464h434l372 -733q55 -111 93.5 -198t62.5 -140h2q-4 92 -5 198.5t-1 225.5v647h309v-1464z" />
<glyph unicode="O" horiz-adv-x="1632" d="M815 262q92 0 164 33t123 94.5t77.5 147.5t26.5 192q0 111 -26.5 200t-77.5 151.5t-123 96t-164 33.5q-184 0 -288.5 -130t-104.5 -351q0 -106 26.5 -192t78 -147.5t124 -94.5t164.5 -33zM815 1491q166 0 303 -53.5t235.5 -152.5t153 -239.5t54.5 -314.5 q0 -178 -53.5 -318.5t-152 -237.5t-236.5 -149.5t-306 -52.5q-166 0 -303 52.5t-234.5 149.5t-150.5 237.5t-53 318.5q0 174 54 314.5t151.5 239.5t234.5 152.5t303 53.5z" />
<glyph unicode="P" horiz-adv-x="1304" d="M487 797h170q123 0 189.5 46t66.5 146q0 98 -62.5 144.5t-199.5 46.5h-164v-383zM152 1464h438h81t74 -2q242 -8 374 -131t132 -336q0 -117 -42 -213t-124 -157q-86 -66 -201.5 -84.5t-273.5 -18.5h-123v-522h-335v1464z" />
<glyph unicode="Q" horiz-adv-x="1632" d="M1030 522l96 -100q80 121 80 307q0 111 -26.5 200t-77.5 151.5t-123 96t-164 33.5q-184 0 -288.5 -130t-104.5 -351q0 -106 26.5 -192t78 -147.5t124 -94.5t164.5 -33h26.5t24.5 2l-243 252zM813 1491q166 0 304 -53.5t236.5 -152.5t153 -239.5t54.5 -314.5 q0 -178 -52.5 -316.5t-150.5 -236.5l268 -280h-399l-121 122q-135 -47 -293 -47q-166 0 -303 52.5t-234.5 149.5t-150.5 237.5t-53 318.5q0 174 53 314.5t151.5 239.5t234.5 152.5t302 53.5z" />
<glyph unicode="R" horiz-adv-x="1327" d="M485 797h189q119 0 185.5 47t66.5 145q0 104 -71 147.5t-204 43.5h-166v-383zM485 0h-333v1464h540q129 0 223.5 -18.5t171.5 -71.5q80 -59 123 -147t43 -195q0 -96 -26.5 -170t-71.5 -128t-103.5 -91t-121.5 -57l366 -586h-376l-310 528h-125v-528z" />
<glyph unicode="S" horiz-adv-x="1292" d="M399 444q31 -201 258 -200q102 0 164 46t62 124q0 37 -14.5 62.5t-43 44t-72.5 32.5t-104 31l-100 28q-121 35 -207 76t-140.5 93.5t-80 119t-25.5 152.5q0 98 40 178t111.5 138t174 90t227.5 32q119 0 218.5 -28.5t170 -85t111.5 -138.5t47 -188h-336q-16 84 -69.5 129 t-153.5 45q-92 0 -141.5 -41t-49.5 -107q2 -74 49.5 -105.5t133.5 -56.5l112 -32q125 -35 216.5 -74t151.5 -90t90 -121t30 -168q0 -104 -42 -189t-119 -144.5t-185.5 -91.5t-239.5 -32q-266 0 -421.5 125t-166.5 346h344z" />
<glyph unicode="T" horiz-adv-x="1200" d="M432 0v1176h-387v288h1110v-288h-387v-1176h-336z" />
<glyph unicode="U" horiz-adv-x="1449" d="M725 262q123 0 187.5 84t64.5 256v862h336v-872q0 -139 -29 -239.5t-86 -176.5q-74 -98 -192.5 -149.5t-280.5 -51.5q-324 0 -473 201q-57 76 -86 176.5t-29 239.5v872h336v-862q0 -172 64.5 -256t187.5 -84z" />
<glyph unicode="V" horiz-adv-x="1390" d="M489 0q-37 106 -78.5 231t-86.5 259.5t-90.5 269.5t-88.5 263t-79.5 240.5t-65.5 200.5h371l231 -784q16 -57 28.5 -99t23 -83t20.5 -85t24 -104h7q14 55 25 100.5t22.5 87.5t23.5 87t31 102l233 778h351q-25 -78 -59 -181t-73.5 -221t-81.5 -242t-81 -242 q-94 -279 -195 -578h-412v0z" />
<glyph unicode="W" horiz-adv-x="1978" d="M1946 1464q-74 -369 -150 -732t-149 -732h-441l-153 831q-10 49 -16.5 88t-12.5 77t-11 81t-14 101h-6q-8 -57 -13 -97.5t-11 -75t-13.5 -72.5t-17.5 -91l-160 -842h-448q-76 369 -148.5 732.5t-148.5 731.5h340q31 -172 56.5 -341t55.5 -343l29 -162q8 -51 14.5 -87.5 t10.5 -70.5t9 -74t13 -97h8q10 74 18.5 123t16.5 98t20.5 110.5t30.5 159.5l133 684h433l120 -651q31 -164 53.5 -300t32.5 -228h9q6 53 11 92t11 75.5t12.5 75.5t16.5 90l147 846h312v0z" />
<glyph unicode="X" horiz-adv-x="1366" d="M1350 1464q-113 -174 -236 -357t-233 -349q123 -193 249.5 -380.5t251.5 -377.5h-399q-63 104 -146 237.5t-161 260.5q-43 -66 -82 -127.5t-77 -121t-76 -120.5t-81 -129h-376q123 184 252 374.5t247 373.5q-115 174 -235.5 359t-231.5 357h392q27 -49 62.5 -108.5 t74.5 -122t75.5 -122.5t67.5 -112q66 109 140.5 225.5t148.5 239.5h373v0z" />
<glyph unicode="Y" horiz-adv-x="1273" d="M805 549v-549h-336v549q-88 168 -174 334q-37 70 -77 146.5t-80 153.5t-76.5 148.5t-69.5 132.5h375q72 -154 142.5 -306t137.5 -298h4q23 55 50.5 116.5t61.5 135.5t75 161t90 191h360z" />
<glyph unicode="Z" horiz-adv-x="1222" d="M72 268l454 623q53 76 107.5 150.5t99.5 136.5q-68 -2 -125 -2h-129h-381v288h1024v-270q-16 -25 -57 -81t-96 -130l-295 -408q-53 -74 -112.5 -152.5t-102.5 -135.5q72 2 132 2h134h430v-289h-1083v268z" />
<glyph unicode="[" horiz-adv-x="739" d="M674 -231h-504v1695h504v-198h-232v-1297h232v-200z" />
<glyph unicode="\" horiz-adv-x="978" d="M934 -215h-299l-590 1679h295z" />
<glyph unicode="]" horiz-adv-x="739" d="M66 -31h231v1297h-231v198h503v-1695h-503v200z" />
<glyph unicode="^" d="M725 1401q106 -205 207.5 -405.5t212.5 -405.5h-303q-29 61 -63 131t-65.5 133.5t-56 113.5t-34.5 72h-7q-10 -23 -35.5 -72.5t-57 -112t-66.5 -133.5t-64 -132h-301q111 205 212.5 405.5t207.5 405.5h213z" />
<glyph unicode="_" horiz-adv-x="1204" d="M115 -117h975v-223h-975v223z" />
<glyph unicode="`" horiz-adv-x="526" d="M371 1221l-289 243h420l213 -243h-344z" />
<glyph unicode="a" horiz-adv-x="1177" d="M760 440v18.5t2 18.5l-55 -6q-178 -20 -252 -54t-74 -108q0 -59 45 -92t117 -33q111 0 164 66.5t53 189.5zM797 0q-4 31 -6.5 60.5t0.5 60.5q-25 -25 -55.5 -50.5t-70.5 -46t-93.5 -32.5t-127.5 -12q-86 0 -157.5 21.5t-122.5 62t-80 100t-29 135.5q0 98 53.5 164.5 t139.5 108.5t195.5 63.5t224.5 32.5q27 2 52 4t42 2q0 111 -40 165t-132 54q-84 0 -127 -41t-51 -113h-308q12 168 137.5 268.5t348.5 100.5q117 0 205 -23.5t148.5 -80t90 -149.5t29.5 -230v-328q0 -31 1 -70t3 -78.5t6 -78.5t12 -70h-288z" />
<glyph unicode="b" horiz-adv-x="1312" d="M666 862q-109 0 -174.5 -85t-65.5 -228q0 -147 62.5 -237.5t177.5 -90.5q57 0 102 24.5t75.5 67.5t47 101.5t16.5 128.5t-16.5 128t-47 101t-75.5 66.5t-102 23.5zM127 0v1464h319v-282v-49t-1 -61t-1 -60.5v-48.5q18 23 48 48t71 46.5t93.5 35t117.5 13.5 q104 0 191.5 -38t149 -109.5t96 -176t34.5 -235.5q0 -129 -34.5 -234.5t-98 -180.5t-153 -117t-199.5 -42q-68 0 -122 16.5t-95 41t-70 54.5t-47 58q2 -27 2 -68.5v-74.5h-301z" />
<glyph unicode="c" horiz-adv-x="1216" d="M1165 383q-18 -92 -62 -169t-112.5 -132t-159 -85t-200.5 -30q-129 0 -234.5 42t-179.5 118t-114 180.5t-40 229.5t41 230t116 182t180.5 119t232.5 42q217 0 355 -107.5t175 -308.5h-321q-23 78 -74 121t-131 43q-113 0 -178.5 -86t-65.5 -233q0 -158 66.5 -238 t185.5 -80q70 0 128 38t79 124h313z" />
<glyph unicode="d" horiz-adv-x="1312" d="M647 862q-57 0 -102 -23.5t-76 -66.5t-47 -101.5t-16 -127.5q0 -70 16 -128.5t47 -101.5t76 -67.5t102 -24.5q115 0 177.5 90t62.5 238q0 143 -65.5 228t-174.5 85zM885 0v75t2 68q-18 -29 -47 -58.5t-71 -54t-96.5 -41t-123.5 -16.5q-109 0 -198 40t-151.5 113 t-97 177.5t-34.5 233.5q0 131 35.5 236.5t98 179t150.5 113.5t193 40q68 0 119 -13.5t91 -35t67.5 -47t45.5 -47.5v48.5t-1 60.5t-1 60.5v49.5v282h320v-1464h-301z" />
<glyph unicode="e" d="M862 662q-12 106 -71.5 164.5t-159.5 58.5q-98 0 -161.5 -58.5t-78.5 -164.5h471zM1167 319q-49 -158 -186 -255t-354 -97q-129 0 -232.5 40t-176.5 115t-112.5 181.5t-39.5 237.5q0 125 40.5 230.5t116.5 181t179.5 117.5t230.5 42q135 0 237.5 -44t172 -122 t105.5 -188.5t36 -241.5q0 -8 -1 -17.5t-1 -17.5v-18h-799q10 -121 78.5 -188.5t175.5 -67.5q147 0 205 112h325z" />
<glyph unicode="f" horiz-adv-x="720" d="M190 1126q0 176 104.5 268.5t291.5 92.5q35 0 62.5 -3t43.5 -7v-236q-20 4 -51 4q-131 0 -131 -137v-33h182v-231h-182v-844h-320v844h-143v231h143v51z" />
<glyph unicode="g" horiz-adv-x="1316" d="M649 862q-113 0 -177 -81t-64 -210q0 -123 63.5 -202.5t177.5 -79.5q104 0 172 76.5t68 216.5q0 123 -64.5 201.5t-175.5 78.5zM430 -39q29 -66 78 -98.5t127 -32.5q145 0 201.5 96.5t52.5 282.5h-4q-41 -68 -128 -116t-212 -48q-109 0 -196 38t-149.5 107.5t-96 167 t-33.5 215.5q0 119 35.5 216.5t100 168t151.5 109.5t192 39q131 0 214 -50t122 -116q-4 33 -4 72v63h309v-907q0 -281 -146.5 -425t-420.5 -144q-233 0 -364.5 99t-164.5 263h336z" />
<glyph unicode="h" horiz-adv-x="1261" d="M127 0v1464h319v-229v-137t-2 -146q39 59 117 104.5t201 45.5q111 0 192.5 -45t128.5 -127q20 -35 32.5 -73t19 -83t8.5 -99t2 -124v-551h-320v520q0 162 -35.5 247t-140.5 85q-104 0 -153.5 -77t-49.5 -224v-551h-319z" />
<glyph unicode="i" horiz-adv-x="573" d="M127 0v1075h319v-1075h-319zM127 1464h319v-262h-319v262z" />
<glyph unicode="j" horiz-adv-x="573" d="M127 1464h319v-262h-319v262zM446 2q0 -109 -18 -183.5t-62 -121.5t-116 -68.5t-178 -21.5q-35 0 -73 3t-71 9v221q12 -2 19.5 -2h15.5q92 0 128 41t36 129v1067h319v-1073z" />
<glyph unicode="k" horiz-adv-x="1191" d="M127 0v1464h319v-866h3q20 29 68 97.5t100.5 145.5t96.5 143.5t60 90.5h385q-59 -72 -121.5 -148.5t-119 -145t-99.5 -122t-61 -77.5q31 -45 83 -115t113.5 -149.5t127 -162.5t122.5 -155h-405q-45 72 -102.5 155t-109.5 157.5t-91 134t-47 81.5h-3v-528h-319z" />
<glyph unicode="l" horiz-adv-x="585" d="M133 0v1464h320v-1464h-320z" />
<glyph unicode="m" horiz-adv-x="1914" d="M803 0v520q0 172 -33 252t-131 80q-102 0 -147.5 -77t-45.5 -224v-551h-319v911v82t-2 82h305v-147q16 33 44 64.5t68 56t92 39t120 14.5q115 0 190.5 -48t120.5 -132h4q18 31 48 62.5t74 58t101.5 43t128.5 16.5q76 0 143.5 -23.5t120 -78t83 -143.5t30.5 -220v-637 h-319v520q0 172 -33 252t-131 80q-102 0 -147.5 -77t-45.5 -224v-551h-319z" />
<glyph unicode="n" horiz-adv-x="1261" d="M127 0v911v82t-2 82h305v-147q16 33 45 64.5t71 56t95 39t121 14.5q111 0 192.5 -45t128.5 -127q20 -35 32.5 -73t19 -83t8.5 -99t2 -124v-551h-320v520q0 162 -35.5 247t-140.5 85q-104 0 -153.5 -77t-49.5 -224v-551h-319z" />
<glyph unicode="o" horiz-adv-x="1286" d="M639 860q-119 0 -182.5 -88t-63.5 -233q0 -150 62.5 -235t185.5 -85t184.5 85t61.5 233q0 145 -62.5 234t-185.5 89zM641 1112q131 0 237.5 -42t183.5 -117.5t119 -182t42 -233.5t-41 -231.5t-117 -179.5t-183.5 -117t-238.5 -42q-133 0 -240.5 42t-182.5 117t-116 180.5 t-41 232.5t42 232.5t118 181t182.5 117.5t235.5 42z" />
<glyph unicode="p" horiz-adv-x="1312" d="M666 862q-109 0 -174.5 -85t-65.5 -228q0 -147 62.5 -237.5t177.5 -90.5q57 0 102 24.5t75.5 67.5t47 101.5t16.5 128.5t-16.5 128t-47 101t-75.5 66.5t-102 23.5zM440 1075q0 -35 -1 -62.5t-1 -49.5q18 23 49 48t73 46.5t95.5 35t118.5 13.5q104 0 191.5 -38t149 -109.5 t96 -176t34.5 -235.5q0 -129 -34.5 -234.5t-98 -180.5t-153 -117t-199.5 -42q-123 0 -199 42t-117 96q2 -47 2 -103.5v-126.5v-250h-319v1444h313z" />
<glyph unicode="q" horiz-adv-x="1312" d="M647 862q-57 0 -102 -23.5t-76 -66.5t-47 -101.5t-16 -127.5q0 -70 16 -128.5t47 -101.5t76 -67.5t102 -24.5q115 0 177.5 90t62.5 238q0 143 -65.5 228t-174.5 85zM1186 1075v-1444h-320v283q0 49 1 92t3 109q-39 -53 -115.5 -97.5t-201.5 -44.5q-111 0 -200 40 t-152.5 113t-98 176.5t-34.5 232.5q0 131 35.5 237.5t98 180t150.5 113.5t193 40q68 0 120 -13.5t92 -34t67.5 -46t45.5 -47.5v110h316z" />
<glyph unicode="r" horiz-adv-x="819" d="M127 881v96t-2 98h297v-66.5t-1 -44t-2 -31.5t-1 -28h4q41 102 117.5 149.5t181.5 47.5q45 0 65 -4v-291q-20 4 -40.5 6t-43.5 2q-88 0 -139 -28.5t-76.5 -88t-33 -148.5t-7.5 -212v-338h-319v881z" />
<glyph unicode="s" horiz-adv-x="1146" d="M379 352q31 -158 211 -157q74 0 122 26.5t48 73.5q0 51 -46 72.5t-134 44.5l-138 37q-88 25 -154.5 52t-110.5 65t-66.5 88.5t-22.5 121.5q0 152 126 244t357 92q102 0 189.5 -21.5t152 -64.5t103.5 -108.5t47 -153.5h-311q-18 59 -65.5 92t-125.5 33q-72 0 -110.5 -25.5 t-38.5 -66.5q0 -51 51 -74t168 -51l71 -19q104 -27 178 -56.5t120.5 -68.5t68 -91t21.5 -122q0 -162 -132.5 -255t-371.5 -93q-250 0 -381 93.5t-156 291.5h330z" />
<glyph unicode="t" horiz-adv-x="768" d="M31 844v231h162v287h319v-287h195v-231h-195v-367q0 -74 2 -123t14.5 -79.5t38 -44t72.5 -13.5q27 0 55 6v-235q-23 -4 -54.5 -8.5t-72.5 -4.5q-98 0 -168.5 17.5t-116.5 60.5t-67.5 117t-21.5 186v488h-162z" />
<glyph unicode="u" horiz-adv-x="1253" d="M1126 1075v-911v-82t2 -82h-305v147q-16 -33 -43.5 -64.5t-67.5 -56t-92.5 -39t-119.5 -14.5q-111 0 -193 45t-129 127q-20 35 -32.5 73t-18.5 83t-8 99.5t-2 123.5v551h319v-520q0 -162 34 -247t138 -85t151.5 77t47.5 224v551h319z" />
<glyph unicode="v" horiz-adv-x="1130" d="M385 0q-92 266 -186.5 536.5t-186.5 538.5h338q55 -199 110.5 -379t106.5 -379h6q35 158 94.5 352.5t120.5 405.5h332q-94 -272 -188 -538.5t-189 -536.5h-358v0z" />
<glyph unicode="w" horiz-adv-x="1753" d="M328 0q-78 266 -152 536.5t-149 538.5h327l95 -395q14 -57 23 -103.5t17.5 -91.5t16.5 -93t20 -109h6q12 59 21.5 107t19 96.5t20.5 99.5t28 116l84 373h346l90 -379q23 -98 44 -204.5t44 -212.5h4q18 90 39.5 198.5t46.5 216.5l86 381h324q-76 -272 -152 -538.5 t-152 -536.5h-387l-80 328q-23 96 -45 190t-34 172h-7q-10 -49 -18 -91t-17.5 -84t-20.5 -87t-23 -98l-80 -330h-385v0z" />
<glyph unicode="x" horiz-adv-x="1118" d="M369 557l-334 518h354q16 -33 38 -73.5t45.5 -84t47 -87.5t43.5 -82q37 68 81 155.5t93 171.5h338q-37 -59 -79 -125.5t-85 -134t-85 -133.5t-78 -123q41 -66 89 -136.5t96 -143t96 -144.5t89 -135h-356q-72 129 -124 223t-79 146q-20 -41 -47 -89.5t-54.5 -97.5t-55 -96 t-50.5 -86h-348z" />
<glyph unicode="y" horiz-adv-x="1126" d="M279 -369q29 88 53 164q23 66 42 128.5t29 90.5q-98 262 -202.5 530.5t-196.5 530.5h340q37 -121 67.5 -218t58.5 -183t51.5 -165t45.5 -159h11q14 66 38.5 155t52 187.5t57.5 197.5t54 185h330q-31 -82 -71 -198.5t-87 -249.5t-96 -274.5t-95 -274.5t-86 -249t-69 -198 h-327v0z" />
<glyph unicode="z" horiz-adv-x="1079" d="M72 233q76 86 159.5 181.5t158.5 181.5t133.5 151.5t82.5 92.5l-2 2q-66 -4 -123 -4h-129h-262v237h893v-233q-135 -152 -225 -254.5t-149.5 -170t-95.5 -108.5t-62 -71v-2q70 2 132 3t140 1h291v-240h-942v233z" />
<glyph unicode="{" horiz-adv-x="690" d="M63 686q35 10 61 23.5t42 38t23.5 62.5t7.5 99v305q0 74 12 123t45 79t88 43.5t141 13.5q12 0 33 -1.5t41 -1.5h49v-188q-37 -2 -60.5 -9t-38.5 -25.5t-21.5 -50.5t-6.5 -81v-186q0 -84 -6 -135.5t-23.5 -84t-46 -53t-73.5 -39.5v-4q45 -18 73.5 -38.5t46 -53.5t23.5 -85 t6 -134v-194q0 -49 6.5 -80t21.5 -48.5t38.5 -23.5t60.5 -8v-189q-27 -2 -49 -2h-74q-86 0 -141 13.5t-88 43t-45 79t-12 122.5v306q0 61 -7.5 99t-23.5 62.5t-42 38t-61 23.5v141z" />
<glyph unicode="|" horiz-adv-x="624" d="M172 1497h281v-1624h-281v1624z" />
<glyph unicode="}" horiz-adv-x="690" d="M627 545q-35 -10 -60.5 -23.5t-42 -38t-23.5 -62.5t-7 -99v-306q0 -74 -12.5 -123t-45.5 -78.5t-88 -43t-141 -13.5h-74q-23 0 -49 2v189q37 2 60.5 8t39 23.5t21.5 48t6 80.5v194q0 82 6 134t23.5 85t46 53.5t73.5 38.5v4q-45 18 -73.5 39t-46 53.5t-23.5 84t-6 135.5 v186q0 49 -6 81t-21.5 50.5t-39 25.5t-60.5 9v188h49q20 0 40 1.5t34 1.5q86 0 141 -13.5t88 -43.5t45.5 -79t12.5 -123v-305q0 -61 7 -99t23.5 -62.5t42 -38t60.5 -23.5v-141z" />
<glyph unicode="~" d="M1159 739q-31 -55 -65.5 -103t-76.5 -84t-89 -56.5t-101 -20.5q-59 0 -114.5 19.5t-120.5 50.5l-35 16q-43 20 -78 35.5t-69 15.5q-41 0 -75 -29.5t-75 -105.5l-182 141q31 55 65.5 103.5t76.5 84.5t89 56.5t101 20.5q59 0 114.5 -19.5t120.5 -50.5l35 -16q43 -20 78 -36 t69 -16q41 0 75 30t75 106z" />
<glyph unicode="&#xa1;" horiz-adv-x="634" d="M485 770h-335v305h335v-305zM184 645h271q4 -96 9 -191.5t10 -194.5t9 -207.5t4 -229.5v-223h-335v223q0 121 4 229.5t9 207.5t10 194.5t9 191.5z" />
<glyph unicode="&#xa2;" d="M403 539q0 -201 107 -277v551q-51 -41 -79 -110.5t-28 -163.5zM1176 383q-31 -158 -133.5 -263.5t-266.5 -137.5v-150h-272v150q-201 41 -315.5 189t-114.5 366q0 106 30.5 199t86 167t135.5 123t178 72v176h272v-174q160 -31 263.5 -134.5t134.5 -269.5h-322 q-27 88 -82 127v-573q33 20 56.5 53t35.5 80h314z" />
<glyph unicode="&#xa3;" d="M1124 0h-991v223q133 14 188.5 81t55.5 153q0 45 -11.5 91t-31.5 93h-254v233h158q-12 45 -19.5 92.5t-7.5 94.5q0 88 30.5 167t92 136t153 91t211.5 34q223 0 342 -110.5t123 -309.5h-293q-10 78 -51 129t-129 51q-49 0 -83 -16t-54.5 -43t-29.5 -62.5t-9 -74.5 q0 -43 9 -87t24 -85h338v-240h-250q16 -47 28.5 -98t12.5 -103q0 -49 -14.5 -102t-49.5 -100q18 0 49 1t63 1h59.5h43.5h297v-240z" />
<glyph unicode="&#xa4;" d="M436 551q39 -39 87 -58.5t98.5 -19.5t98.5 19.5t87 58.5t58.5 87t19.5 99t-18.5 99.5t-57.5 87.5t-87 57t-99.5 18t-99.5 -18t-87 -57t-58.5 -87.5t-19.5 -99.5t19.5 -99t58.5 -87zM862 268q-117 -59 -245 -59t-242 61l-113 -110l-223 225l113 113q-57 115 -58.5 241.5 t58.5 239.5l-113 115l223 225l115 -115q115 59 243 59.5t240 -57.5l111 111l225 -223l-109 -109q61 -117 61.5 -247t-58.5 -246l106 -107l-225 -223z" />
<glyph unicode="&#xa5;" d="M1006 975h127v-232h-248l-80 -151h328v-232h-351v-360h-336v360h-346v232h324q-14 25 -33.5 63.5t-46.5 87.5h-244v232h125q-66 125 -134 255t-122 234h375l281 -604h4q23 55 50.5 116.5t61 135.5t74.5 161t90 191h361z" />
<glyph unicode="&#xa6;" horiz-adv-x="628" d="M174 494h281v-621h-281v621zM174 1497h281v-620h-281v620z" />
<glyph unicode="&#xa7;" d="M774 481q39 6 65.5 40t26.5 71q0 31 -14 53.5t-45 43t-77 40t-109 43.5l-162 64q-35 -10 -62.5 -36t-27.5 -67q0 -29 12 -50t37.5 -39.5t64.5 -37t95 -41.5l196 -84v0zM420 160q10 -66 60 -107t138 -41q76 0 123 25.5t47 75.5q0 33 -18 55t-53 41.5t-85 38t-112 43.5 l-114 45q-76 31 -138.5 65.5t-106.5 77.5t-67.5 97.5t-23.5 121.5q0 96 54 159t150 99q0 2 1 2t1 3q-18 12 -40.5 29.5t-42 43t-31.5 61t-12 87.5q0 141 123.5 226t353.5 85q205 0 334 -85t139 -251h-307q-14 59 -61.5 87t-117.5 28q-72 0 -110.5 -23.5t-38.5 -64.5 q0 -47 49 -73t152 -67l77 -30q104 -43 184.5 -82t132.5 -83t78.5 -96.5t26.5 -121.5q0 -100 -45 -161.5t-135 -107.5q61 -47 98 -96t37 -135q0 -78 -35.5 -140.5t-102.5 -108.5t-161 -70.5t-209 -24.5q-233 0 -367 103.5t-151 269.5h326z" />
<glyph unicode="&#xa8;" horiz-adv-x="1005" d="M657 1464h252v-243h-252v243zM256 1464h254v-243h-254v243z" />
<glyph unicode="&#xa9;" horiz-adv-x="1693" d="M1477 737q0 131 -49.5 247t-135.5 202t-200.5 136t-243.5 50q-133 0 -248 -50t-199 -136t-133 -202t-49 -247q0 -133 49 -248.5t133 -202.5t199 -137.5t246 -50.5t245.5 50.5t200.5 136.5t135.5 202.5t49.5 249.5zM1618 737q0 -162 -60.5 -302t-165 -244.5t-245.5 -165 t-303 -60.5q-160 0 -300.5 60.5t-243.5 165t-163.5 246t-60.5 300.5q0 160 59.5 300.5t163.5 244.5t245.5 164.5t303.5 60.5q160 0 300 -60.5t244.5 -164.5t165 -244.5t60.5 -300.5zM1272 567q-43 -141 -153.5 -218t-272.5 -77q-102 0 -185 32t-141.5 90.5t-91.5 143.5 t-33 193q0 104 33 190.5t93.5 145.5t143.5 92t183 33q162 0 273.5 -81t152.5 -224h-227q-29 63 -80.5 95t-122.5 32q-109 0 -169.5 -77t-60.5 -206q0 -123 60.5 -198.5t169.5 -75.5q137 0 194 110h234z" />
<glyph unicode="&#xaa;" horiz-adv-x="960" d="M571 719q-119 -16 -181 -44t-62 -75q0 -41 32.5 -65.5t85.5 -24.5q68 0 112 42t46 155v16zM627 367q-2 27 -3 46t-1 36q-37 -39 -90.5 -69t-159.5 -30q-131 0 -213 62.5t-82 179.5q0 74 39 122t103.5 78.5t147.5 47t169 24.5q16 2 32.5 3t36.5 3q-4 80 -33.5 121 t-95.5 41q-57 0 -89 -30.5t-38 -81.5h-235q10 123 100 199.5t262 76.5q88 0 156.5 -18.5t114 -61.5t69 -112.5t23.5 -172.5v-284q0 -47 2 -90t6 -90h-221z" />
<glyph unicode="&#xab;" horiz-adv-x="1107" d="M829 586l187 -385h-291l-209 385l209 383h291zM383 586l197 -385h-295l-209 385l209 383h295z" />
<glyph unicode="&#xac;" d="M84 956h1034v-675h-297v401h-737v274z" />
<glyph unicode="&#xad;" horiz-adv-x="854" d="M117 748h620v-277h-620v277z" />
<glyph unicode="&#xae;" horiz-adv-x="1097" d="M926 1026q0 80 -30 148.5t-80 121t-118.5 82t-146.5 29.5q-80 0 -148.5 -29.5t-119 -82t-80 -121t-29.5 -148.5t28.5 -149.5t80 -122t120 -82t146.5 -29.5t146.5 29.5t119.5 82t81 122t30 149.5zM1028 1026q0 -100 -38 -187t-102.5 -151.5t-151.5 -102.5t-187 -38 q-98 0 -185.5 38t-152 102.5t-102 151.5t-37.5 187q0 98 36.5 186t101 153t153 102.5t188.5 37.5q98 0 185 -37.5t151.5 -102.5t102.5 -153t38 -186zM489 1067h64q84 0 84 61q0 35 -23.5 48.5t-68.5 13.5h-56v-123zM489 754h-145v555h244q66 0 110 -23q39 -20 61.5 -55 t22.5 -88q0 -72 -33.5 -112t-80.5 -58l133 -219h-166l-113 196h-33v-196z" />
<glyph unicode="&#xaf;" horiz-adv-x="876" d="M164 1432h559v-191h-559v191z" />
<glyph unicode="&#xb0;" horiz-adv-x="825" d="M268 1155q0 -61 42 -102t104 -41q61 0 102 41t41 102q0 63 -42 104t-101 41q-61 0 -103.5 -41t-42.5 -104zM414 819q-72 0 -134.5 25.5t-108.5 71t-72.5 106.5t-26.5 133t26.5 133.5t72.5 107.5t108.5 71.5t134.5 25.5t134 -25.5t108 -71.5t72 -107.5t26 -133.5t-26 -133 t-72 -106.5t-108 -71t-134 -25.5z" />
<glyph unicode="&#xb1;" d="M96 940h385v287h275v-287h385v-266h-385v-287h-275v287h-385v266zM104 274h1020v-274h-1020v274z" />
<glyph unicode="&#xb2;" horiz-adv-x="911" d="M109 555v172q41 33 74.5 58.5t67.5 51t71.5 56.5t91.5 74q84 66 114.5 120t30.5 105q0 49 -28.5 75.5t-75.5 26.5q-59 0 -87 -40t-28 -101h-229q2 154 96 244t254 90t248 -76t88 -205q0 -109 -57.5 -188.5t-147.5 -149.5q-51 -41 -94 -69q-29 -20 -43.5 -30.5 t-46.5 -33.5h391v-180h-690z" />
<glyph unicode="&#xb3;" horiz-adv-x="849" d="M293 856q10 -127 127 -127q63 0 94 31t31 84q0 61 -44 87.5t-124 26.5h-27v172q78 0 120 23t42 78q0 39 -26.5 60.5t-67.5 21.5t-70 -24.5t-29 -80.5h-213q4 127 89.5 203t228.5 76q141 0 225 -67.5t84 -178.5q0 -76 -33.5 -118t-91.5 -68q31 -12 59.5 -29.5t51 -43.5 t37 -62.5t14.5 -88.5q0 -125 -93 -201.5t-257 -76.5q-158 0 -248 79t-94 224h215z" />
<glyph unicode="&#xb4;" horiz-adv-x="874" d="M172 1221l213 243h420l-289 -243h-344z" />
<glyph unicode="&#xb5;" horiz-adv-x="1263" d="M127 -369v1444h319v-520q0 -162 34 -247t138 -85t151.5 77t47.5 224v551h320v-911v-82t2 -82h-305v147q-43 -88 -120 -127.5t-169 -39.5q-25 0 -49.5 2t-49.5 8v-359h-319z" />
<glyph unicode="&#xb6;" horiz-adv-x="1366" d="M772 -231h-219v796q-98 0 -188.5 32t-160 91.5t-110.5 143t-41 186.5q0 117 47 206t136 150q82 57 175 73.5t212 16.5h608v-219h-88v-1476h-219v1476h-152v-1476z" />
<glyph unicode="&#xb7;" horiz-adv-x="567" d="M117 823h334v-340h-334v340z" />
<glyph unicode="&#xb8;" horiz-adv-x="755" d="M362 -100h300l-156 -234h-334z" />
<glyph unicode="&#xb9;" horiz-adv-x="606" d="M53 1165v142h21q90 0 146 42t77 115h180v-899h-203v600h-221z" />
<glyph unicode="&#xba;" horiz-adv-x="1013" d="M502 1014q-86 0 -133 -65.5t-47 -174.5q0 -111 46 -174t136 -63t136 62.5t46 172.5q0 109 -46 175.5t-138 66.5zM504 1204q98 0 179 -31.5t138.5 -88t89 -136.5t31.5 -176t-30.5 -174t-88 -134t-138.5 -87t-179 -31q-100 0 -180 31t-136.5 87t-87 135t-30.5 175t30.5 175 t88 136.5t136.5 88t177 30.5z" />
<glyph unicode="&#xbb;" horiz-adv-x="1107" d="M92 969h291l209 -383l-209 -385h-291l187 385zM528 969h295l209 -383l-209 -385h-295l197 385z" />
<glyph unicode="&#xbc;" horiz-adv-x="1677" d="M61 1165v142h21q90 0 146.5 42t76.5 115h180v-899h-202v600h-222zM950 1464h191l-563 -1464h-191zM1284 535q0 35 1 72.5t3 66.5l-90 -139q-39 -59 -69.5 -104.5t-63.5 -94.5h219v199zM852 170v156l258 368q20 29 44 64t46 67q25 37 51 76h242v-565h119v-166h-119v-170 h-203v170h-438z" />
<glyph unicode="&#xbd;" horiz-adv-x="1728" d="M61 1165v142h21q90 0 146.5 42t76.5 115h180v-899h-202v600h-222zM950 1464h191l-563 -1464h-191zM954 0v172q41 33 75 58.5t67.5 51t71.5 56.5t92 74q84 66 114.5 120t30.5 105q0 49 -28.5 75.5t-76.5 26.5q-59 0 -86.5 -40t-27.5 -101h-230q2 154 96.5 244t254.5 90 t247.5 -76t87.5 -205q0 -109 -57 -188.5t-147 -149.5q-51 -41 -95 -69q-29 -20 -43 -30.5t-47 -33.5h392v-180h-691z" />
<glyph unicode="&#xbe;" horiz-adv-x="1878" d="M1153 1464h190l-563 -1464h-190zM1487 535q0 35 1 72.5t3 66.5l-90 -139q-39 -59 -70 -104.5t-63 -94.5h219v199zM1055 170v156l258 368q20 29 43.5 64t46.5 67q25 37 51 76h242v-565h119v-166h-119v-170h-203v170h-438zM285 856q10 -127 127 -127q63 0 94 31t31 84 q0 61 -44 87.5t-124 26.5h-27v172q78 0 120 23t42 78q0 39 -26.5 60.5t-67.5 21.5t-70 -24.5t-29 -80.5h-213q4 127 89 203t229 76q141 0 225 -67.5t84 -178.5q0 -76 -34 -118t-91 -68q31 -12 59.5 -29.5t51 -43.5t37 -62.5t14.5 -88.5q0 -125 -93.5 -201.5t-256.5 -76.5 q-158 0 -248 79t-94 224h215z" />
<glyph unicode="&#xbf;" horiz-adv-x="1130" d="M410 1075h333v-303h-333v303zM1073 63q-2 -111 -37 -199.5t-101.5 -150t-161.5 -95.5t-216 -34t-214 32t-155.5 88t-95.5 131t-33 161q0 115 51.5 204t147.5 167l18 14q43 35 73 63.5t49.5 57t27.5 63.5t8 84h291q0 -74 -7 -126t-25.5 -95t-50.5 -81t-79 -81l-78 -71 q-41 -37 -67.5 -84.5t-26.5 -108.5q0 -68 46 -114t128 -46q96 0 142.5 58.5t44.5 162.5h321z" />
<glyph unicode="&#xc0;" horiz-adv-x="1474" d="M918 612q-29 90 -53.5 166t-47 144.5t-43 132t-41.5 131.5h-4q-39 -137 -87 -282.5t-95 -291.5h371zM-20 0q49 131 112.5 301t136 361.5t152.5 396.5t160 405h403q66 -176 135.5 -361t139 -372.5t138 -372t134.5 -358.5h-352q-33 88 -65 172t-64 174h-553l-131 -346h-346 v0zM621 1559l-285 235h403l213 -235h-331z" />
<glyph unicode="&#xc1;" horiz-adv-x="1474" d="M918 612q-29 90 -53.5 166t-47 144.5t-43 132t-41.5 131.5h-4q-39 -137 -87 -282.5t-95 -291.5h371zM-20 0q49 131 112.5 301t136 361.5t152.5 396.5t160 405h403q66 -176 135.5 -361t139 -372.5t138 -372t134.5 -358.5h-352q-33 88 -65 172t-64 174h-553l-131 -346h-346 v0zM541 1559l213 235h403l-285 -235h-331z" />
<glyph unicode="&#xc2;" horiz-adv-x="1474" d="M918 612q-29 90 -53.5 166t-47 144.5t-43 132t-41.5 131.5h-4q-39 -137 -87 -282.5t-95 -291.5h371zM-20 0q49 131 112.5 301t136 361.5t152.5 396.5t160 405h403q66 -176 135.5 -361t139 -372.5t138 -372t134.5 -358.5h-352q-33 88 -65 172t-64 174h-553l-131 -346h-346 v0zM893 1794l217 -235h-281l-96 104l-98 -104h-281l211 235h328z" />
<glyph unicode="&#xc3;" horiz-adv-x="1474" d="M918 612q-29 90 -53.5 166t-47 144.5t-43 132t-41.5 131.5h-4q-39 -137 -87 -282.5t-95 -291.5h371zM-20 0q49 131 112.5 301t136 361.5t152.5 396.5t160 405h403q66 -176 135.5 -361t139 -372.5t138 -372t134.5 -358.5h-352q-33 88 -65 172t-64 174h-553l-131 -346h-346 v0zM729 1591q-37 18 -57.5 27.5t-38.5 9.5q-51 0 -58 -63h-172q0 49 13.5 94t41 80t67.5 55.5t93 20.5q43 0 75 -12.5t67 -28.5q41 -20 61.5 -27.5t36.5 -7.5q29 0 40 16.5t17 52.5h166q0 -53 -13 -100t-38.5 -82t-63.5 -55.5t-87 -20.5q-41 0 -78 12.5t-72 28.5z" />
<glyph unicode="&#xc4;" horiz-adv-x="1474" d="M918 612q-29 90 -53.5 166t-47 144.5t-43 132t-41.5 131.5h-4q-39 -137 -87 -282.5t-95 -291.5h371zM-20 0q49 131 112.5 301t136 361.5t152.5 396.5t160 405h403q66 -176 135.5 -361t139 -372.5t138 -372t134.5 -358.5h-352q-33 88 -65 172t-64 174h-553l-131 -346h-346 v0zM817 1788h252v-244h-252v244zM416 1788h254v-244h-254v244z" />
<glyph unicode="&#xc5;" horiz-adv-x="1474" d="M918 612q-29 90 -53.5 166t-47 144.5t-43 132t-41.5 131.5h-4q-39 -137 -87 -282.5t-95 -291.5h371zM-20 0q49 131 112.5 301t136 361.5t152.5 396.5t160 405h403q66 -176 135.5 -361t139 -372.5t138 -372t134.5 -358.5h-352q-33 88 -65 172t-64 174h-553l-131 -346h-346 v0zM649 1735q0 -35 22.5 -59.5t57.5 -24.5t58.5 23.5t23.5 60.5q0 33 -23.5 56.5t-58.5 23.5t-57.5 -23.5t-22.5 -56.5zM729 1511q-47 0 -87 17.5t-68.5 48.5t-46 71t-17.5 87q0 45 17.5 85t48 69.5t70.5 47t85 17.5t86 -17.5t71 -47t47 -69.5t17 -85q0 -47 -17 -87t-47 -71 t-71 -48.5t-88 -17.5z" />
<glyph unicode="&#xc6;" horiz-adv-x="2035" d="M973 612q-2 90 -3 166t-2 144.5t-3 132t-4 131.5h-5q-68 -137 -146.5 -282.5t-158.5 -291.5h322zM1339 287h609v-287h-959l-8 346h-475l-195 -346h-352l846 1464h1134v-286h-618l6 -297h561v-283h-555z" />
<glyph unicode="&#xc7;" horiz-adv-x="1562" d="M1516 459q-72 -231 -253.5 -358.5t-449.5 -127.5q-166 0 -303 52.5t-234.5 149.5t-150.5 237.5t-53 318.5q0 174 54 314.5t152.5 239.5t235.5 152.5t303 53.5q268 0 450.5 -133t252.5 -369l-367 -2q-47 106 -131 164.5t-207 58.5q-184 0 -288.5 -130t-104.5 -351 q0 -106 26.5 -192t78 -147.5t124 -94.5t164.5 -33q117 0 197 52.5t129 144.5h375zM688 -100h299l-156 -234h-333z" />
<glyph unicode="&#xc8;" horiz-adv-x="1210" d="M483 287h639v-287h-970v1464h962v-286h-631v-297h580v-283h-580v-311zM520 1559l-284 235h403l213 -235h-332z" />
<glyph unicode="&#xc9;" horiz-adv-x="1210" d="M483 287h639v-287h-970v1464h962v-286h-631v-297h580v-283h-580v-311zM391 1559l213 235h404l-285 -235h-332z" />
<glyph unicode="&#xca;" horiz-adv-x="1210" d="M483 287h639v-287h-970v1464h962v-286h-631v-297h580v-283h-580v-311zM801 1794l217 -235h-281l-96 104l-98 -104h-281l211 235h328z" />
<glyph unicode="&#xcb;" horiz-adv-x="1210" d="M483 287h639v-287h-970v1464h962v-286h-631v-297h580v-283h-580v-311zM715 1788h252v-244h-252v244zM313 1788h254v-244h-254v244z" />
<glyph unicode="&#xcc;" horiz-adv-x="638" d="M152 0v1464h335v-1464h-335zM176 1559l-285 235h404l213 -235h-332z" />
<glyph unicode="&#xcd;" horiz-adv-x="638" d="M152 0v1464h335v-1464h-335zM152 1559l213 235h403l-285 -235h-331z" />
<glyph unicode="&#xce;" horiz-adv-x="638" d="M152 0v1464h335v-1464h-335zM479 1794l217 -235h-280l-97 104l-98 -104h-280l211 235h327z" />
<glyph unicode="&#xcf;" horiz-adv-x="638" d="M152 0v1464h335v-1464h-335zM395 1788h252v-244h-252v244zM-6 1788h254v-244h-254v244z" />
<glyph unicode="&#xd0;" horiz-adv-x="1525" d="M500 885h217v-283h-217v-317h114q133 0 220 26q129 39 196.5 141.5t67.5 282.5q0 170 -67.5 274.5t-196.5 145.5q-80 27 -199 27h-135v-297zM41 885h123v579h364h104.5t106.5 -2q162 -6 294 -57t225.5 -143.5t143.5 -224.5t50 -300q0 -94 -20.5 -188t-59.5 -176 t-94 -147.5t-123 -102.5q-61 -43 -130 -67.5t-146.5 -37t-165.5 -15.5t-189 -3h-360v602h-123v283z" />
<glyph unicode="&#xd1;" horiz-adv-x="1570" d="M1419 0h-428l-317 614q-76 147 -133.5 265t-81.5 184h-2q2 -45 3 -101.5t1 -119v-125v-119.5v-598h-309v1464h434l372 -733q55 -111 93.5 -198t62.5 -140h2q-4 92 -5 198.5t-1 225.5v647h309v-1464zM803 1591q-37 18 -57.5 27.5t-38.5 9.5q-51 0 -58 -63h-172 q0 49 13.5 94t41 80t67.5 55.5t93 20.5q43 0 75 -12.5t67 -28.5q41 -20 61 -27.5t37 -7.5q29 0 40 16.5t17 52.5h166q0 -53 -13.5 -100t-39 -82t-63.5 -55.5t-87 -20.5q-41 0 -77.5 12.5t-71.5 28.5z" />
<glyph unicode="&#xd2;" horiz-adv-x="1632" d="M815 262q92 0 164 33t123 94.5t77.5 147.5t26.5 192q0 111 -26.5 200t-77.5 151.5t-123 96t-164 33.5q-184 0 -288.5 -130t-104.5 -351q0 -106 26.5 -192t78 -147.5t124 -94.5t164.5 -33zM815 1491q166 0 303 -53.5t235.5 -152.5t153 -239.5t54.5 -314.5 q0 -178 -53.5 -318.5t-152 -237.5t-236.5 -149.5t-306 -52.5q-166 0 -303 52.5t-234.5 149.5t-150.5 237.5t-53 318.5q0 174 54 314.5t151.5 239.5t234.5 152.5t303 53.5zM702 1559l-284 235h403l213 -235h-332z" />
<glyph unicode="&#xd3;" horiz-adv-x="1632" d="M815 262q92 0 164 33t123 94.5t77.5 147.5t26.5 192q0 111 -26.5 200t-77.5 151.5t-123 96t-164 33.5q-184 0 -288.5 -130t-104.5 -351q0 -106 26.5 -192t78 -147.5t124 -94.5t164.5 -33zM815 1491q166 0 303 -53.5t235.5 -152.5t153 -239.5t54.5 -314.5 q0 -178 -53.5 -318.5t-152 -237.5t-236.5 -149.5t-306 -52.5q-166 0 -303 52.5t-234.5 149.5t-150.5 237.5t-53 318.5q0 174 54 314.5t151.5 239.5t234.5 152.5t303 53.5zM606 1559l213 235h404l-285 -235h-332z" />
<glyph unicode="&#xd4;" horiz-adv-x="1632" d="M815 262q92 0 164 33t123 94.5t77.5 147.5t26.5 192q0 111 -26.5 200t-77.5 151.5t-123 96t-164 33.5q-184 0 -288.5 -130t-104.5 -351q0 -106 26.5 -192t78 -147.5t124 -94.5t164.5 -33zM815 1491q166 0 303 -53.5t235.5 -152.5t153 -239.5t54.5 -314.5 q0 -178 -53.5 -318.5t-152 -237.5t-236.5 -149.5t-306 -52.5q-166 0 -303 52.5t-234.5 149.5t-150.5 237.5t-53 318.5q0 174 54 314.5t151.5 239.5t234.5 152.5t303 53.5zM981 1794l217 -235h-280l-97 104l-98 -104h-281l211 235h328z" />
<glyph unicode="&#xd5;" horiz-adv-x="1632" d="M815 262q92 0 164 33t123 94.5t77.5 147.5t26.5 192q0 111 -26.5 200t-77.5 151.5t-123 96t-164 33.5q-184 0 -288.5 -130t-104.5 -351q0 -106 26.5 -192t78 -147.5t124 -94.5t164.5 -33zM815 1491q166 0 303 -53.5t235.5 -152.5t153 -239.5t54.5 -314.5 q0 -178 -53.5 -318.5t-152 -237.5t-236.5 -149.5t-306 -52.5q-166 0 -303 52.5t-234.5 149.5t-150.5 237.5t-53 318.5q0 174 54 314.5t151.5 239.5t234.5 152.5t303 53.5zM803 1591q-37 18 -57.5 27.5t-38.5 9.5q-51 0 -58 -63h-172q0 49 13.5 94t41 80t67.5 55.5t93 20.5 q43 0 75 -12.5t67 -28.5q41 -20 61 -27.5t37 -7.5q29 0 40 16.5t17 52.5h166q0 -53 -13.5 -100t-39 -82t-63.5 -55.5t-87 -20.5q-41 0 -77.5 12.5t-71.5 28.5z" />
<glyph unicode="&#xd6;" horiz-adv-x="1632" d="M815 262q92 0 164 33t123 94.5t77.5 147.5t26.5 192q0 111 -26.5 200t-77.5 151.5t-123 96t-164 33.5q-184 0 -288.5 -130t-104.5 -351q0 -106 26.5 -192t78 -147.5t124 -94.5t164.5 -33zM815 1491q166 0 303 -53.5t235.5 -152.5t153 -239.5t54.5 -314.5 q0 -178 -53.5 -318.5t-152 -237.5t-236.5 -149.5t-306 -52.5q-166 0 -303 52.5t-234.5 149.5t-150.5 237.5t-53 318.5q0 174 54 314.5t151.5 239.5t234.5 152.5t303 53.5zM885 1788h252v-244h-252v244zM483 1788h254v-244h-254v244z" />
<glyph unicode="&#xd7;" d="M1102 948l-293 -293l293 -293l-191 -190l-293 293l-292 -293l-191 190l293 293l-293 293l191 191l292 -293l293 293z" />
<glyph unicode="&#xd8;" horiz-adv-x="1632" d="M422 729q0 -137 45 -244l410 721q-14 2 -30 3t-32 1q-184 0 -288.5 -130t-104.5 -351zM815 262q92 0 164 33t123 94.5t77.5 147.5t26.5 192q0 166 -59 281l-422 -740q39 -8 90 -8zM815 1491q113 0 211 -25l88 156l291 -158l-84 -149q115 -98 177.5 -246.5t62.5 -337.5 q0 -178 -53.5 -318.5t-152 -237.5t-236.5 -149.5t-306 -52.5q-129 0 -240 31l-92 -164l-291 158l95 168q-102 98 -157.5 239.5t-55.5 325.5q0 174 54 314.5t151.5 239.5t234.5 152.5t303 53.5z" />
<glyph unicode="&#xd9;" horiz-adv-x="1449" d="M725 262q123 0 187.5 84t64.5 256v862h336v-872q0 -139 -29 -239.5t-86 -176.5q-74 -98 -192.5 -149.5t-280.5 -51.5q-324 0 -473 201q-57 76 -86 176.5t-29 239.5v872h336v-862q0 -172 64.5 -256t187.5 -84zM618 1559l-284 235h403l213 -235h-332z" />
<glyph unicode="&#xda;" horiz-adv-x="1449" d="M725 262q123 0 187.5 84t64.5 256v862h336v-872q0 -139 -29 -239.5t-86 -176.5q-74 -98 -192.5 -149.5t-280.5 -51.5q-324 0 -473 201q-57 76 -86 176.5t-29 239.5v872h336v-862q0 -172 64.5 -256t187.5 -84zM498 1559l213 235h403l-285 -235h-331z" />
<glyph unicode="&#xdb;" horiz-adv-x="1449" d="M725 262q123 0 187.5 84t64.5 256v862h336v-872q0 -139 -29 -239.5t-86 -176.5q-74 -98 -192.5 -149.5t-280.5 -51.5q-324 0 -473 201q-57 76 -86 176.5t-29 239.5v872h336v-862q0 -172 64.5 -256t187.5 -84zM887 1794l217 -235h-281l-96 104l-98 -104h-281l211 235h328z " />
<glyph unicode="&#xdc;" horiz-adv-x="1449" d="M725 262q123 0 187.5 84t64.5 256v862h336v-872q0 -139 -29 -239.5t-86 -176.5q-74 -98 -192.5 -149.5t-280.5 -51.5q-324 0 -473 201q-57 76 -86 176.5t-29 239.5v872h336v-862q0 -172 64.5 -256t187.5 -84zM801 1788h252v-244h-252v244zM399 1788h254v-244h-254v244z " />
<glyph unicode="&#xdd;" horiz-adv-x="1273" d="M805 549v-549h-336v549q-88 168 -174 334q-37 70 -77 146.5t-80 153.5t-76.5 148.5t-69.5 132.5h375q72 -154 142.5 -306t137.5 -298h4q23 55 50.5 116.5t61.5 135.5t75 161t90 191h360zM438 1559l213 235h404l-285 -235h-332z" />
<glyph unicode="&#xde;" horiz-adv-x="1282" d="M487 549h170q123 0 189.5 46t66.5 146q0 98 -62.5 144.5t-199.5 46.5h-164v-383zM487 1464v-247h103h81t74 -3q242 -8 374 -130.5t132 -335.5q0 -117 -42 -213.5t-124 -157.5q-86 -66 -201.5 -84.5t-273.5 -18.5h-123v-274h-335v1464h335z" />
<glyph unicode="&#xdf;" horiz-adv-x="1228" d="M127 977q0 139 31.5 237.5t109.5 163.5q59 49 145.5 76t200.5 27q229 0 354.5 -93.5t125.5 -259.5q0 -133 -65.5 -203.5t-172.5 -95.5q66 -16 121 -47.5t96 -80t64.5 -114t23.5 -147.5q0 -115 -37 -198.5t-101.5 -141t-152.5 -85t-192 -27.5q-29 0 -59.5 2t-71.5 8v229 q8 -2 16 -2q10 -2 37 -2q49 0 92 13.5t76 42t52.5 72.5t19.5 108q0 82 -30 128t-71 69.5t-87 28.5t-77 5h-26v236h18q205 0 205 168q0 68 -39 108.5t-121 40.5q-66 0 -102.5 -29.5t-52.5 -85.5q-6 -25 -8.5 -54.5t-2.5 -63.5v-1010h-319v977z" />
<glyph unicode="&#xe0;" horiz-adv-x="1177" d="M760 440v18.5t2 18.5l-55 -6q-178 -20 -252 -54t-74 -108q0 -59 45 -92t117 -33q111 0 164 66.5t53 189.5zM797 0q-4 31 -6.5 60.5t0.5 60.5q-25 -25 -55.5 -50.5t-70.5 -46t-93.5 -32.5t-127.5 -12q-86 0 -157.5 21.5t-122.5 62t-80 100t-29 135.5q0 98 53.5 164.5 t139.5 108.5t195.5 63.5t224.5 32.5q27 2 52 4t42 2q0 111 -40 165t-132 54q-84 0 -127 -41t-51 -113h-308q12 168 137.5 268.5t348.5 100.5q117 0 205 -23.5t148.5 -80t90 -149.5t29.5 -230v-328q0 -31 1 -70t3 -78.5t6 -78.5t12 -70h-288zM471 1221l-289 243h420l213 -243 h-344z" />
<glyph unicode="&#xe1;" horiz-adv-x="1177" d="M760 440v18.5t2 18.5l-55 -6q-178 -20 -252 -54t-74 -108q0 -59 45 -92t117 -33q111 0 164 66.5t53 189.5zM797 0q-4 31 -6.5 60.5t0.5 60.5q-25 -25 -55.5 -50.5t-70.5 -46t-93.5 -32.5t-127.5 -12q-86 0 -157.5 21.5t-122.5 62t-80 100t-29 135.5q0 98 53.5 164.5 t139.5 108.5t195.5 63.5t224.5 32.5q27 2 52 4t42 2q0 111 -40 165t-132 54q-84 0 -127 -41t-51 -113h-308q12 168 137.5 268.5t348.5 100.5q117 0 205 -23.5t148.5 -80t90 -149.5t29.5 -230v-328q0 -31 1 -70t3 -78.5t6 -78.5t12 -70h-288zM365 1221l213 243h419l-288 -243 h-344z" />
<glyph unicode="&#xe2;" horiz-adv-x="1177" d="M760 440v18.5t2 18.5l-55 -6q-178 -20 -252 -54t-74 -108q0 -59 45 -92t117 -33q111 0 164 66.5t53 189.5zM797 0q-4 31 -6.5 60.5t0.5 60.5q-25 -25 -55.5 -50.5t-70.5 -46t-93.5 -32.5t-127.5 -12q-86 0 -157.5 21.5t-122.5 62t-80 100t-29 135.5q0 98 53.5 164.5 t139.5 108.5t195.5 63.5t224.5 32.5q27 2 52 4t42 2q0 111 -40 165t-132 54q-84 0 -127 -41t-51 -113h-308q12 168 137.5 268.5t348.5 100.5q117 0 205 -23.5t148.5 -80t90 -149.5t29.5 -230v-328q0 -31 1 -70t3 -78.5t6 -78.5t12 -70h-288zM752 1464l217 -243h-281l-96 104 l-98 -104h-281l213 243h326z" />
<glyph unicode="&#xe3;" horiz-adv-x="1177" d="M760 440v18.5t2 18.5l-55 -6q-178 -20 -252 -54t-74 -108q0 -59 45 -92t117 -33q111 0 164 66.5t53 189.5zM797 0q-4 31 -6.5 60.5t0.5 60.5q-25 -25 -55.5 -50.5t-70.5 -46t-93.5 -32.5t-127.5 -12q-86 0 -157.5 21.5t-122.5 62t-80 100t-29 135.5q0 98 53.5 164.5 t139.5 108.5t195.5 63.5t224.5 32.5q27 2 52 4t42 2q0 111 -40 165t-132 54q-84 0 -127 -41t-51 -113h-308q12 168 137.5 268.5t348.5 100.5q117 0 205 -23.5t148.5 -80t90 -149.5t29.5 -230v-328q0 -31 1 -70t3 -78.5t6 -78.5t12 -70h-288zM580 1247q-37 18 -57.5 27.5 t-39.5 9.5q-51 0 -57 -63h-172q0 49 13.5 94t41 80t67.5 55t93 20q43 0 74.5 -12t66.5 -28q41 -20 61.5 -27.5t37.5 -7.5q29 0 40 16t17 53h166q0 -53 -13.5 -100t-39 -82t-63.5 -55.5t-87 -20.5q-41 0 -77.5 12.5t-71.5 28.5z" />
<glyph unicode="&#xe4;" horiz-adv-x="1177" d="M760 440v18.5t2 18.5l-55 -6q-178 -20 -252 -54t-74 -108q0 -59 45 -92t117 -33q111 0 164 66.5t53 189.5zM797 0q-4 31 -6.5 60.5t0.5 60.5q-25 -25 -55.5 -50.5t-70.5 -46t-93.5 -32.5t-127.5 -12q-86 0 -157.5 21.5t-122.5 62t-80 100t-29 135.5q0 98 53.5 164.5 t139.5 108.5t195.5 63.5t224.5 32.5q27 2 52 4t42 2q0 111 -40 165t-132 54q-84 0 -127 -41t-51 -113h-308q12 168 137.5 268.5t348.5 100.5q117 0 205 -23.5t148.5 -80t90 -149.5t29.5 -230v-328q0 -31 1 -70t3 -78.5t6 -78.5t12 -70h-288zM659 1464h252v-243h-252v243z M258 1464h254v-243h-254v243z" />
<glyph unicode="&#xe5;" horiz-adv-x="1177" d="M760 440v18.5t2 18.5l-55 -6q-178 -20 -252 -54t-74 -108q0 -59 45 -92t117 -33q111 0 164 66.5t53 189.5zM797 0q-4 31 -6.5 60.5t0.5 60.5q-25 -25 -55.5 -50.5t-70.5 -46t-93.5 -32.5t-127.5 -12q-86 0 -157.5 21.5t-122.5 62t-80 100t-29 135.5q0 98 53.5 164.5 t139.5 108.5t195.5 63.5t224.5 32.5q27 2 52 4t42 2q0 111 -40 165t-132 54q-84 0 -127 -41t-51 -113h-308q12 168 137.5 268.5t348.5 100.5q117 0 205 -23.5t148.5 -80t90 -149.5t29.5 -230v-328q0 -31 1 -70t3 -78.5t6 -78.5t12 -70h-288zM508 1386q0 -35 22.5 -59 t57.5 -24t58.5 23.5t23.5 59.5q0 33 -23.5 56.5t-58.5 23.5t-57.5 -23.5t-22.5 -56.5zM588 1163q-47 0 -87 17.5t-69 48.5t-46 70.5t-17 86.5q0 45 17 85t48 70t71 47.5t85 17.5t86 -17.5t70.5 -47.5t47 -69.5t17.5 -85.5q0 -47 -17.5 -86.5t-47 -70.5t-70.5 -48.5 t-88 -17.5z" />
<glyph unicode="&#xe6;" horiz-adv-x="1900" d="M707 471q-90 -10 -152.5 -23.5t-100.5 -32t-54.5 -44t-16.5 -60.5q0 -59 44 -91t116 -32q47 0 87 13.5t67.5 44t44 81t18.5 126.5v24zM1528 662q-12 106 -71.5 164.5t-160.5 58.5q-98 0 -161.5 -58.5t-77.5 -164.5h471zM1831 319q-49 -158 -185.5 -255t-353.5 -97 q-131 0 -236.5 41t-178.5 119q-25 -25 -62 -51.5t-87 -48t-117.5 -36t-153.5 -14.5q-193 0 -297.5 84t-104.5 238q0 96 52.5 160.5t138.5 106.5t195.5 63.5t224.5 32.5q27 2 52 4t44 2q-2 117 -43 169t-133 52q-78 0 -122 -41t-52 -109h-310q12 166 134 266.5t352 100.5 q117 0 206 -27.5t148 -87.5q74 55 164 88t194 33q135 0 236.5 -44t171.5 -122t104.5 -188.5t34.5 -241.5q0 -8 -1 -17.5t-1 -17.5v-18h-796q10 -121 78.5 -188.5t175.5 -67.5q147 0 204 112h324z" />
<glyph unicode="&#xe7;" horiz-adv-x="1216" d="M1165 383q-18 -92 -62 -169t-112.5 -132t-159 -85t-200.5 -30q-129 0 -234.5 42t-179.5 118t-114 180.5t-40 229.5t41 230t116 182t180.5 119t232.5 42q217 0 355 -107.5t175 -308.5h-321q-23 78 -74 121t-131 43q-113 0 -178.5 -86t-65.5 -233q0 -158 66.5 -238 t185.5 -80q70 0 128 38t79 124h313zM487 -100h299l-155 -234h-334z" />
<glyph unicode="&#xe8;" d="M862 662q-12 106 -71.5 164.5t-159.5 58.5q-98 0 -161.5 -58.5t-78.5 -164.5h471zM1167 319q-49 -158 -186 -255t-354 -97q-129 0 -232.5 40t-176.5 115t-112.5 181.5t-39.5 237.5q0 125 40.5 230.5t116.5 181t179.5 117.5t230.5 42q135 0 237.5 -44t172 -122 t105.5 -188.5t36 -241.5q0 -8 -1 -17.5t-1 -17.5v-18h-799q10 -121 78.5 -188.5t175.5 -67.5q147 0 205 112h325zM522 1221l-289 243h420l213 -243h-344z" />
<glyph unicode="&#xe9;" d="M862 662q-12 106 -71.5 164.5t-159.5 58.5q-98 0 -161.5 -58.5t-78.5 -164.5h471zM1167 319q-49 -158 -186 -255t-354 -97q-129 0 -232.5 40t-176.5 115t-112.5 181.5t-39.5 237.5q0 125 40.5 230.5t116.5 181t179.5 117.5t230.5 42q135 0 237.5 -44t172 -122 t105.5 -188.5t36 -241.5q0 -8 -1 -17.5t-1 -17.5v-18h-799q10 -121 78.5 -188.5t175.5 -67.5q147 0 205 112h325zM422 1221l213 243h420l-289 -243h-344z" />
<glyph unicode="&#xea;" d="M862 662q-12 106 -71.5 164.5t-159.5 58.5q-98 0 -161.5 -58.5t-78.5 -164.5h471zM1167 319q-49 -158 -186 -255t-354 -97q-129 0 -232.5 40t-176.5 115t-112.5 181.5t-39.5 237.5q0 125 40.5 230.5t116.5 181t179.5 117.5t230.5 42q135 0 237.5 -44t172 -122 t105.5 -188.5t36 -241.5q0 -8 -1 -17.5t-1 -17.5v-18h-799q10 -121 78.5 -188.5t175.5 -67.5q147 0 205 112h325zM799 1464l217 -243h-281l-96 104l-98 -104h-281l213 243h326z" />
<glyph unicode="&#xeb;" d="M862 662q-12 106 -71.5 164.5t-159.5 58.5q-98 0 -161.5 -58.5t-78.5 -164.5h471zM1167 319q-49 -158 -186 -255t-354 -97q-129 0 -232.5 40t-176.5 115t-112.5 181.5t-39.5 237.5q0 125 40.5 230.5t116.5 181t179.5 117.5t230.5 42q135 0 237.5 -44t172 -122 t105.5 -188.5t36 -241.5q0 -8 -1 -17.5t-1 -17.5v-18h-799q10 -121 78.5 -188.5t175.5 -67.5q147 0 205 112h325zM711 1464h252v-243h-252v243zM309 1464h254v-243h-254v243z" />
<glyph unicode="&#xec;" horiz-adv-x="573" d="M127 0v1075h319v-1075h-319zM166 1221l-289 243h420l213 -243h-344z" />
<glyph unicode="&#xed;" horiz-adv-x="573" d="M127 0v1075h319v-1075h-319zM100 1221l213 243h420l-289 -243h-344z" />
<glyph unicode="&#xee;" horiz-adv-x="573" d="M127 0v1075h319v-1075h-319zM451 1464l217 -243h-281l-96 104l-98 -104h-281l213 243h326z" />
<glyph unicode="&#xef;" horiz-adv-x="573" d="M127 0v1075h319v-1075h-319zM365 1464h251v-243h-251v243zM-37 1464h254v-243h-254v243z" />
<glyph unicode="&#xf0;" horiz-adv-x="1298" d="M641 860q-119 0 -182.5 -88t-63.5 -233q0 -150 62.5 -235t185.5 -85t184.5 85t61.5 233q0 145 -62.5 234t-185.5 89zM1026 1346l-149 -52q174 -152 262 -325.5t88 -399.5q0 -143 -41 -254.5t-118 -188.5t-185.5 -117t-243.5 -40q-127 0 -232.5 40t-181 114t-117.5 178.5 t-42 230.5q0 139 44 247t117.5 180.5t169 109.5t197.5 37q33 0 67.5 -5t55.5 -16l6 7q-27 29 -56.5 55.5t-64.5 54.5l-229 -78l-146 150l181 59q-61 37 -123 70t-119 61h455l69 -37l191 66z" />
<glyph unicode="&#xf1;" horiz-adv-x="1261" d="M127 0v911v82t-2 82h305v-147q16 33 45 64.5t71 56t95 39t121 14.5q111 0 192.5 -45t128.5 -127q20 -35 32.5 -73t19 -83t8.5 -99t2 -124v-551h-320v520q0 162 -35.5 247t-140.5 85q-104 0 -153.5 -77t-49.5 -224v-551h-319zM651 1247q-37 18 -57.5 27.5t-38.5 9.5 q-51 0 -57 -63h-172q0 49 13 94t41 80t67.5 55t93.5 20q43 0 74.5 -12t66.5 -28q41 -20 61.5 -27.5t36.5 -7.5q29 0 40 16t18 53h166q0 -53 -13.5 -100t-39 -82t-63.5 -55.5t-87 -20.5q-41 0 -78 12.5t-72 28.5z" />
<glyph unicode="&#xf2;" horiz-adv-x="1286" d="M639 860q-119 0 -182.5 -88t-63.5 -233q0 -150 62.5 -235t185.5 -85t184.5 85t61.5 233q0 145 -62.5 234t-185.5 89zM641 1112q131 0 237.5 -42t183.5 -117.5t119 -182t42 -233.5t-41 -231.5t-117 -179.5t-183.5 -117t-238.5 -42q-133 0 -240.5 42t-182.5 117t-116 180.5 t-41 232.5t42 232.5t118 181t182.5 117.5t235.5 42zM520 1221l-289 243h420l213 -243h-344z" />
<glyph unicode="&#xf3;" horiz-adv-x="1286" d="M639 860q-119 0 -182.5 -88t-63.5 -233q0 -150 62.5 -235t185.5 -85t184.5 85t61.5 233q0 145 -62.5 234t-185.5 89zM641 1112q131 0 237.5 -42t183.5 -117.5t119 -182t42 -233.5t-41 -231.5t-117 -179.5t-183.5 -117t-238.5 -42q-133 0 -240.5 42t-182.5 117t-116 180.5 t-41 232.5t42 232.5t118 181t182.5 117.5t235.5 42zM420 1221l213 243h420l-289 -243h-344z" />
<glyph unicode="&#xf4;" horiz-adv-x="1286" d="M639 860q-119 0 -182.5 -88t-63.5 -233q0 -150 62.5 -235t185.5 -85t184.5 85t61.5 233q0 145 -62.5 234t-185.5 89zM641 1112q131 0 237.5 -42t183.5 -117.5t119 -182t42 -233.5t-41 -231.5t-117 -179.5t-183.5 -117t-238.5 -42q-133 0 -240.5 42t-182.5 117t-116 180.5 t-41 232.5t42 232.5t118 181t182.5 117.5t235.5 42zM803 1464l217 -243h-281l-96 104l-98 -104h-281l213 243h326z" />
<glyph unicode="&#xf5;" horiz-adv-x="1286" d="M639 860q-119 0 -182.5 -88t-63.5 -233q0 -150 62.5 -235t185.5 -85t184.5 85t61.5 233q0 145 -62.5 234t-185.5 89zM641 1112q131 0 237.5 -42t183.5 -117.5t119 -182t42 -233.5t-41 -231.5t-117 -179.5t-183.5 -117t-238.5 -42q-133 0 -240.5 42t-182.5 117t-116 180.5 t-41 232.5t42 232.5t118 181t182.5 117.5t235.5 42zM625 1247q-37 18 -57.5 27.5t-39.5 9.5q-51 0 -57 -63h-172q0 49 13.5 94t41 80t67.5 55t93 20q43 0 75 -12t66 -28q41 -20 61.5 -27.5t37.5 -7.5q29 0 40 16t17 53h166q0 -53 -13.5 -100t-39 -82t-63.5 -55.5t-87 -20.5 q-41 0 -77.5 12.5t-71.5 28.5z" />
<glyph unicode="&#xf6;" horiz-adv-x="1286" d="M639 860q-119 0 -182.5 -88t-63.5 -233q0 -150 62.5 -235t185.5 -85t184.5 85t61.5 233q0 145 -62.5 234t-185.5 89zM641 1112q131 0 237.5 -42t183.5 -117.5t119 -182t42 -233.5t-41 -231.5t-117 -179.5t-183.5 -117t-238.5 -42q-133 0 -240.5 42t-182.5 117t-116 180.5 t-41 232.5t42 232.5t118 181t182.5 117.5t235.5 42zM713 1464h252v-243h-252v243zM311 1464h254v-243h-254v243z" />
<glyph unicode="&#xf7;" d="M463 1200h311v-299h-311v299zM463 414h311v-299h-311v299zM109 795h1019v-275h-1019v275z" />
<glyph unicode="&#xf8;" horiz-adv-x="1286" d="M639 860q-119 0 -182.5 -88t-63.5 -233q0 -76 15 -131l256 450q-9 2 -25 2zM887 537q0 41 -5 77.5t-16 69.5l-266 -463q10 -2 20.5 -2h20.5q123 0 184.5 85.5t61.5 232.5zM641 1112q39 0 75 -4t70 -12l70 123l252 -127l-70 -119q88 -78 136.5 -188.5t48.5 -247.5 q0 -127 -41 -231.5t-117 -179.5t-183.5 -117t-238.5 -42q-90 0 -166 19l-65 -115l-250 129l67 117q-80 78 -123 184.5t-43 237.5q0 127 42 232.5t118 181t182.5 117.5t235.5 42z" />
<glyph unicode="&#xf9;" horiz-adv-x="1253" d="M1126 1075v-911v-82t2 -82h-305v147q-16 -33 -43.5 -64.5t-67.5 -56t-92.5 -39t-119.5 -14.5q-111 0 -193 45t-129 127q-20 35 -32.5 73t-18.5 83t-8 99.5t-2 123.5v551h319v-520q0 -162 34 -247t138 -85t151.5 77t47.5 224v551h319zM492 1221l-289 243h420l213 -243 h-344z" />
<glyph unicode="&#xfa;" horiz-adv-x="1253" d="M1126 1075v-911v-82t2 -82h-305v147q-16 -33 -43.5 -64.5t-67.5 -56t-92.5 -39t-119.5 -14.5q-111 0 -193 45t-129 127q-20 35 -32.5 73t-18.5 83t-8 99.5t-2 123.5v551h319v-520q0 -162 34 -247t138 -85t151.5 77t47.5 224v551h319zM383 1221l213 243h420l-289 -243 h-344z" />
<glyph unicode="&#xfb;" horiz-adv-x="1253" d="M1126 1075v-911v-82t2 -82h-305v147q-16 -33 -43.5 -64.5t-67.5 -56t-92.5 -39t-119.5 -14.5q-111 0 -193 45t-129 127q-20 35 -32.5 73t-18.5 83t-8 99.5t-2 123.5v551h319v-520q0 -162 34 -247t138 -85t151.5 77t47.5 224v551h319zM784 1464l217 -243h-280l-96 104 l-99 -104h-280l213 243h325z" />
<glyph unicode="&#xfc;" horiz-adv-x="1253" d="M1126 1075v-911v-82t2 -82h-305v147q-16 -33 -43.5 -64.5t-67.5 -56t-92.5 -39t-119.5 -14.5q-111 0 -193 45t-129 127q-20 35 -32.5 73t-18.5 83t-8 99.5t-2 123.5v551h319v-520q0 -162 34 -247t138 -85t151.5 77t47.5 224v551h319zM707 1464h251v-243h-251v243z M305 1464h254v-243h-254v243z" />
<glyph unicode="&#xfd;" horiz-adv-x="1126" d="M279 -369q29 88 53 164q23 66 42 128.5t29 90.5q-98 262 -202.5 530.5t-196.5 530.5h340q37 -121 67.5 -218t58.5 -183t51.5 -165t45.5 -159h11q14 66 38.5 155t52 187.5t57.5 197.5t54 185h330q-31 -82 -71 -198.5t-87 -249.5t-96 -274.5t-95 -274.5t-86 -249t-69 -198 h-327v0zM348 1221l213 243h420l-289 -243h-344z" />
<glyph unicode="&#xfe;" horiz-adv-x="1312" d="M666 862q-109 0 -174.5 -85t-65.5 -228q0 -147 62.5 -237.5t177.5 -90.5q57 0 102 24.5t75.5 67.5t47 101.5t16.5 128.5t-16.5 128t-47 101t-75.5 66.5t-102 23.5zM444 967q18 23 48 47t71 44.5t93.5 34t117.5 13.5q104 0 191.5 -38t149 -109.5t96 -176t34.5 -235.5 q0 -129 -34.5 -234.5t-98 -180.5t-153 -117t-199.5 -42q-123 0 -199 42t-117 96q2 -47 2 -103.5v-126.5v-250h-319v1833h319v-250q0 -98 -1 -160t-1 -87z" />
<glyph unicode="&#xff;" horiz-adv-x="1126" d="M279 -369q29 88 53 164q23 66 42 128.5t29 90.5q-98 262 -202.5 530.5t-196.5 530.5h340q37 -121 67.5 -218t58.5 -183t51.5 -165t45.5 -159h11q14 66 38.5 155t52 187.5t57.5 197.5t54 185h330q-31 -82 -71 -198.5t-87 -249.5t-96 -274.5t-95 -274.5t-86 -249t-69 -198 h-327v0zM653 1464h252v-243h-252v243zM252 1464h254v-243h-254v243z" />
<glyph unicode="&#x152;" horiz-adv-x="2240" d="M811 262q92 0 164 33t121 94.5t75.5 147.5t26.5 192q0 111 -26.5 200t-75.5 151.5t-121 96t-164 33.5q-184 0 -286.5 -130t-102.5 -351q0 -106 26.5 -192t75.5 -147.5t122 -94.5t165 -33zM1509 287h643v-287h-966v76q-76 -47 -172 -76t-219 -29q-172 0 -307.5 56.5 t-227.5 158t-140 240.5t-48 303q0 166 50 305.5t144 240.5t228.5 157.5t300.5 56.5q123 0 219 -28.5t172 -78.5v82h958v-286h-635v-297h584v-283h-584v-311z" />
<glyph unicode="&#x153;" horiz-adv-x="2013" d="M1638 662q-12 106 -69.5 164.5t-157.5 58.5q-98 0 -159.5 -58.5t-75.5 -164.5h462zM637 860q-119 0 -180.5 -88t-61.5 -233q0 -150 60.5 -235t183.5 -85t182.5 85t59.5 233q0 145 -60.5 234t-183.5 89zM1944 319q-49 -158 -184.5 -255t-352.5 -97q-119 0 -214 36 t-167 101q-74 -66 -169 -101.5t-216 -35.5q-133 0 -239.5 42t-181.5 117t-114.5 180.5t-39.5 232.5t40.5 232.5t115.5 181t181.5 117.5t235.5 42q123 0 220 -39t171 -106q72 68 169 106.5t214 38.5q135 0 236.5 -44t171 -122t104.5 -188.5t35 -241.5q0 -8 -1 -17.5t-1 -17.5 v-18h-791q10 -121 77 -188.5t173 -67.5q143 0 201 112h326z" />
<glyph unicode="&#x178;" horiz-adv-x="1273" d="M805 549v-549h-336v549q-88 168 -174 334q-37 70 -77 146.5t-80 153.5t-76.5 148.5t-69.5 132.5h375q72 -154 142.5 -306t137.5 -298h4q23 55 50.5 116.5t61.5 135.5t75 161t90 191h360zM713 1788h252v-244h-252v244zM311 1788h254v-244h-254v244z" />
<glyph unicode="&#x2c6;" horiz-adv-x="1030" d="M690 1464l217 -243h-280l-97 104l-98 -104h-280l213 243h325z" />
<glyph unicode="&#x2dc;" horiz-adv-x="962" d="M623 1247q-37 18 -57.5 27.5t-39.5 9.5q-51 0 -57 -63h-172q0 49 13.5 94t41 80t67.5 55t93 20q43 0 74.5 -12t66.5 -28q41 -20 61.5 -27.5t37.5 -7.5q29 0 40 16t17 53h166q0 -53 -13.5 -100t-39 -82t-63.5 -55.5t-87 -20.5q-41 0 -77.5 12.5t-71.5 28.5z" />
<glyph unicode="&#x2000;" horiz-adv-x="977" />
<glyph unicode="&#x2001;" horiz-adv-x="1954" />
<glyph unicode="&#x2002;" horiz-adv-x="977" />
<glyph unicode="&#x2003;" horiz-adv-x="1954" />
<glyph unicode="&#x2004;" horiz-adv-x="651" />
<glyph unicode="&#x2005;" horiz-adv-x="488" />
<glyph unicode="&#x2006;" horiz-adv-x="325" />
<glyph unicode="&#x2007;" horiz-adv-x="325" />
<glyph unicode="&#x2008;" horiz-adv-x="244" />
<glyph unicode="&#x2009;" horiz-adv-x="390" />
<glyph unicode="&#x200a;" horiz-adv-x="108" />
<glyph unicode="&#x2010;" horiz-adv-x="854" d="M117 748h620v-277h-620v277z" />
<glyph unicode="&#x2011;" horiz-adv-x="854" d="M117 748h620v-277h-620v277z" />
<glyph unicode="&#x2012;" horiz-adv-x="854" d="M117 748h620v-277h-620v277z" />
<glyph unicode="&#x2013;" horiz-adv-x="1212" d="M119 754h975v-273h-975v273z" />
<glyph unicode="&#x2014;" horiz-adv-x="1959" d="M119 754h1722v-273h-1722v273z" />
<glyph unicode="&#x2018;" horiz-adv-x="595" d="M266 1464h275l-148 -522h-317z" />
<glyph unicode="&#x2019;" horiz-adv-x="589" d="M356 942h-274l147 522h318z" />
<glyph unicode="&#x201a;" horiz-adv-x="589" d="M307 -182h-280l147 522h324z" />
<glyph unicode="&#x201c;" horiz-adv-x="1038" d="M266 1464h273l-148 -522h-315zM711 1464h272l-147 -522h-316z" />
<glyph unicode="&#x201d;" horiz-adv-x="1030" d="M797 942h-271l148 522h313zM352 942h-270l147 522h314z" />
<glyph unicode="&#x201e;" horiz-adv-x="1034" d="M752 -182h-281l147 522h324zM307 -182h-280l147 522h324z" />
<glyph unicode="&#x2022;" horiz-adv-x="1075" d="M539 283q-84 0 -158 31.5t-128 86t-86 127t-32 156.5t32 156.5t86 127t128 85t158 30.5q82 0 155.5 -30.5t128 -85t86 -127t31.5 -156.5t-31.5 -156.5t-86 -127t-128 -86t-155.5 -31.5z" />
<glyph unicode="&#x2026;" horiz-adv-x="1923" d="M1473 340h333v-340h-333v340zM795 340h333v-340h-333v340zM117 340h334v-340h-334v340z" />
<glyph unicode="&#x202f;" horiz-adv-x="390" />
<glyph unicode="&#x2030;" horiz-adv-x="2656" d="M2111 379q0 -104 28 -170t106 -66t104.5 65.5t26.5 170.5q0 111 -26 176.5t-105 65.5q-80 0 -107 -66.5t-27 -175.5zM2247 -31q-172 0 -261.5 110.5t-89.5 303.5q0 188 88.5 300t260.5 112t260 -113t88 -301q0 -193 -87 -302.5t-259 -109.5zM1286 379q0 -104 27.5 -170 t105.5 -66t104.5 65.5t26.5 170.5q0 111 -25.5 176.5t-105.5 65.5t-106.5 -66.5t-26.5 -175.5zM1421 -31q-172 0 -261 110.5t-89 303.5q0 188 88 300t260 112t260 -113t88 -301q0 -193 -87 -302.5t-259 -109.5zM1102 1464h190l-563 -1464h-190zM279 1071q0 -104 27.5 -169.5 t105.5 -65.5t104.5 65.5t26.5 169.5q0 111 -25.5 176.5t-105.5 65.5t-106.5 -66.5t-26.5 -175.5zM414 662q-172 0 -261.5 110.5t-89.5 302.5q0 188 88.5 300t260.5 112t260 -112.5t88 -301.5q0 -193 -87 -302t-259 -109z" />
<glyph unicode="&#x2039;" horiz-adv-x="669" d="M383 586l197 -385h-295l-209 385l209 383h295z" />
<glyph unicode="&#x203a;" horiz-adv-x="669" d="M90 969h295l209 -383l-209 -385h-295l197 385z" />
<glyph unicode="&#x205f;" horiz-adv-x="488" />
<glyph unicode="&#x20ac;" d="M59 983h97q12 102 41.5 189.5t87.5 156.5q74 92 182 131t240 39q236 0 367.5 -119.5t156.5 -361.5l-324 -2q-16 104 -59 160.5t-141 56.5q-106 0 -154.5 -64.5t-65.5 -185.5h459l-67 -238h-402v-77h387l-67 -238h-305q18 -96 67 -145t148 -49q100 0 142 53t58 157l322 -2 q-29 -233 -152 -354t-370 -121q-129 0 -232.5 34t-179.5 120q-55 61 -86 138t-45 169h-172l67 238h84v22v55h-151z" />
<glyph unicode="&#x2122;" horiz-adv-x="1972" d="M741 1298h-215v-690h-202v690h-215v166h632v-166zM1243 608q-53 166 -103 321.5t-110 332.5h-6q2 -92 2 -186.5v-201.5v-266h-188v856h329q27 -86 54.5 -174t51 -164.5t42 -139t28.5 -95.5q12 39 32 106.5t43.5 146.5t49 163t48.5 157h321v-856h-192v377q0 80 1 147.5 t1 131.5h-7q-55 -170 -108 -327t-111 -329h-178z" />
<glyph unicode="&#x2190;" horiz-adv-x="1679" d="M547 516q23 -23 56.5 -55.5t74.5 -73.5t86 -85t88 -87q100 -100 217 -215h-395q-55 57 -137 144t-171.5 181.5t-175.5 185.5t-149 157q63 63 149 154t175.5 184.5t171 180.5t137.5 144h395q-117 -115 -217 -215q-43 -43 -88 -87t-86 -85t-75 -74.5t-56 -54.5h1050v-299 h-1050z" />
<glyph unicode="&#x2192;" horiz-adv-x="1679" d="M80 516v299h1050q-23 20 -56.5 54t-74.5 75t-86 85t-88 87q-102 100 -217 215h396q55 -57 137 -144t171 -180.5t174 -184.5t150 -154q-66 -66 -150.5 -157t-173.5 -185.5t-171 -181.5t-137 -144h-396q115 115 217 215q43 43 88 87t86 85t75 74t56 55h-1050z" />
<glyph unicode="&#x25fc;" horiz-adv-x="1075" d="M0 1075h1075v-1075h-1075v1075z" />
<glyph horiz-adv-x="1306" d="M653 1499q172 0 281.5 -61.5t172 -168t87.5 -246.5t25 -296q0 -170 -25 -310.5t-89.5 -239.5t-174 -153.5t-277.5 -54.5q-170 0 -278.5 54.5t-173 153.5t-89 239.5t-24.5 310.5q0 156 24.5 296t87 246.5t172 168t281.5 61.5zM653 236q129 0 176.5 116.5t47.5 366.5 q0 260 -46.5 387t-177.5 127t-177 -127t-46 -387q0 -250 47 -366.5t176 -116.5z" />
<glyph horiz-adv-x="917" d="M45 979v231h33q147 0 239.5 66.5t126.5 187.5h287v-1464h-328v979h-358z" />
<glyph horiz-adv-x="1261" d="M84 0v264q70 53 122 94t104 83t113.5 91.5t147.5 118.5q137 113 190.5 202t53.5 177t-50 135t-138 47q-106 0 -154.5 -65.5t-48.5 -167.5h-328q0 119 37 215t105.5 163.5t167 104.5t225.5 37q123 0 221 -31.5t166.5 -90t105.5 -140.5t37 -184q0 -164 -95 -298t-243 -247 q-55 -43 -99 -75t-82 -59.5t-71.5 -53t-70.5 -56.5q35 2 60.5 2h60.5h548v-266h-1085z" />
<glyph horiz-adv-x="1265" d="M393 444q8 -102 65.5 -156.5t162.5 -54.5q113 0 168 56.5t55 148.5q0 111 -77 158t-218 47h-27v260q129 0 199 42t70 140q0 70 -48.5 111t-126.5 41q-76 0 -127 -42t-53 -132h-317q2 98 38 179t102.5 137.5t159.5 88t210 31.5q113 0 204 -28.5t155.5 -81t100 -126 t35.5 -161.5q0 -133 -63.5 -202t-169.5 -105v-4q51 -16 103.5 -44t95.5 -72t69.5 -106.5t26.5 -150.5q0 -102 -39 -185t-112.5 -141.5t-178 -91.5t-235.5 -33q-127 0 -229.5 32t-174.5 93.5t-113 149.5t-43 202h332z" />
<glyph horiz-adv-x="1323" d="M346 549q41 2 81 2h99h205v346q0 66 2 128t4 126h-4q-41 -72 -75.5 -130t-77.5 -124l-111 -168q-16 -27 -37.5 -57.5t-40.5 -59.5q-22 -32 -45 -63zM1255 285h-206v-285h-318v285h-684v254l623 925h379v-913h206v-266z" />
<glyph horiz-adv-x="1251" d="M418 424q12 -82 65.5 -134t147.5 -52q104 0 161.5 65.5t57.5 175.5q0 104 -57.5 170t-157.5 66q-76 0 -122 -35t-75 -84l-325 53l90 815h878v-270h-618q-10 -76 -19.5 -148.5t-21.5 -152.5h2q51 39 119.5 63.5t165.5 24.5q104 0 191 -34t150.5 -97.5t99.5 -153.5t36 -202 q0 -121 -40 -217.5t-114 -164t-177 -103.5t-228 -36q-121 0 -220.5 33t-172 92.5t-115.5 142.5t-51 183h350z" />
<glyph horiz-adv-x="1288" d="M655 711q-94 0 -156.5 -62.5t-62.5 -171.5t62.5 -172t158.5 -63t158 62.5t62 168.5q0 111 -63 174.5t-159 63.5zM844 1120q-18 55 -56 92t-122 37q-55 0 -99.5 -28.5t-74 -78.5t-45 -121t-15.5 -157q31 31 108.5 69t202.5 38q96 0 181.5 -31t148 -92.5t99 -152.5 t36.5 -210q0 -111 -36.5 -205t-108.5 -161.5t-175.5 -106.5t-234.5 -39q-274 0 -420.5 181.5t-146.5 517.5q0 195 35 349.5t107.5 263t185 165.5t268.5 57q117 0 204 -32.5t148.5 -86t98 -124t51.5 -146.5z" />
<glyph horiz-adv-x="1116" d="M215 0q102 317 240.5 619.5t298.5 570.5q-2 0 -2 2q-68 -4 -121 -3t-125 1h-457v274h1038v-262q-129 -217 -255.5 -513t-256.5 -689h-360z" />
<glyph horiz-adv-x="1271" d="M637 1241q-90 0 -141.5 -50t-51.5 -122t52.5 -122t140.5 -50t139 50t51 122t-51 122t-139 50zM635 645q-102 0 -164.5 -58.5t-62.5 -152.5q0 -88 61 -146.5t166 -58.5q102 0 162.5 57.5t60.5 147.5q0 94 -61.5 152.5t-161.5 58.5zM637 -33q-127 0 -230.5 31t-176 88 t-112.5 138t-40 182q0 272 299 374v4q-117 41 -179.5 122t-62.5 202q0 82 36 153.5t101.5 125t156.5 83t204 29.5q115 0 208 -29.5t158.5 -83t101.5 -125t36 -153.5q0 -121 -62.5 -202t-179.5 -122v-4q147 -53 223 -145t76 -229q0 -100 -40 -181.5t-112.5 -138.5t-175 -88 t-229.5 -31z" />
<glyph horiz-adv-x="1288" d="M633 758q94 0 156.5 62.5t62.5 170.5q0 109 -62.5 172.5t-158.5 63.5t-157.5 -62.5t-61.5 -169.5q0 -111 62.5 -174t158.5 -63zM444 346q18 -55 56.5 -92t122.5 -37q113 0 172 102.5t59 278.5q-16 -16 -43 -34.5t-65.5 -34t-89 -26.5t-111.5 -11q-96 0 -180 31.5 t-147.5 93t-99.5 152.5t-36 212q0 109 38 202t108.5 161.5t173 107.5t233.5 39q274 0 420.5 -182.5t146.5 -526.5q0 -195 -34.5 -348t-107.5 -258.5t-185.5 -162t-270.5 -56.5q-117 0 -205 33t-149.5 87t-99 124.5t-52.5 146.5z" />
<glyph horiz-adv-x="854" d="M117 870h620v-276h-620v276z" />
<glyph horiz-adv-x="1212" d="M119 877h975v-273h-975v273z" />
<glyph horiz-adv-x="1959" d="M119 877h1722v-273h-1722v273z" />
<glyph horiz-adv-x="854" d="M117 870h620v-276h-620v276z" />
<glyph horiz-adv-x="1120" d="M836 709l186 -385h-291l-209 385l209 383h291zM389 709l197 -385h-295l-209 385l209 383h295z" />
<glyph horiz-adv-x="1120" d="M98 1092h291l209 -383l-209 -385h-291l187 385zM535 1092h294l209 -383l-209 -385h-294l196 385z" />
<glyph horiz-adv-x="679" d="M389 709l197 -385h-295l-209 385l209 383h295z" />
<glyph horiz-adv-x="679" d="M94 1092h295l209 -383l-209 -385h-295l197 385z" />
<glyph horiz-adv-x="702" d="M70 715q0 166 40 313.5t111.5 270t172 214t222.5 144.5v-285q-262 -254 -262 -653q0 -403 262 -653v-285q-123 51 -223 142t-173 212t-111.5 267.5t-38.5 312.5z" />
<glyph horiz-adv-x="702" d="M633 715q0 -166 -39 -312.5t-111.5 -267.5t-173 -212t-223.5 -142v285q262 250 262 653q0 399 -262 653v285q123 -53 223.5 -144.5t172 -214t111.5 -270t40 -313.5z" />
<glyph horiz-adv-x="759" d="M686 -129h-504v1696h504v-199h-231v-1296h231v-201z" />
<glyph horiz-adv-x="759" d="M74 72h231v1296h-231v199h504v-1696h-504v201z" />
<glyph horiz-adv-x="714" d="M76 788q35 10 60.5 23.5t42 38t23.5 62.5t7 100v305q0 74 12 123t45 78.5t88.5 43t141.5 13.5q12 0 32.5 -1t40.5 -1h49v-189q-37 -2 -60 -9t-38.5 -25.5t-21.5 -50t-6 -80.5v-187q0 -84 -6.5 -135t-24 -84t-46 -53.5t-73.5 -38.5v-4q45 -18 73.5 -39t46 -53.5t24 -85 t6.5 -133.5v-195q0 -49 6 -80t21.5 -48t39 -23.5t59.5 -8.5v-188q-27 -2 -49 -2h-73q-86 0 -141.5 13t-88.5 43t-45 79t-12 123v305q0 61 -7 99t-23.5 62.5t-42 38t-60.5 23.5v141z" />
<glyph horiz-adv-x="714" d="M639 647q-35 -10 -60.5 -23.5t-42 -38t-23.5 -62.5t-7 -99v-305q0 -74 -12.5 -123t-45 -79t-88 -43t-141.5 -13h-74q-23 0 -49 2v188q37 2 60.5 8.5t39 23.5t21.5 48t6 80v195q0 82 6.5 134t23.5 84.5t46 53t74 39.5v4q-45 18 -74 38.5t-46 53.5t-23.5 84t-6.5 135v187 q0 49 -6 80.5t-21.5 50t-39 25.5t-60.5 9v189h49q20 0 40 1t34 1q86 0 141.5 -13.5t88 -43t45 -78.5t12.5 -123v-305q0 -61 7 -99.5t23.5 -63t42 -37.5t60.5 -24v-141z" />
<glyph horiz-adv-x="649" d="M184 1599h281v-1624h-281v1624z" />
<glyph d="M1102 1030l-293 -293l293 -293l-191 -190l-293 293l-292 -293l-191 190l293 293l-293 293l191 191l292 -293l293 293z" />
<glyph d="M96 899h385v389h275v-389h385v-266h-385v-389h-275v389h-385v266z" />
<glyph d="M1034 1055l-596 -281v-6l596 -283v-311l-891 471v242l891 475v-307z" />
<glyph d="M109 715h1019v-275h-1019v275zM109 1100h1019v-275h-1019v275z" />
<glyph d="M203 1362l891 -475v-242l-891 -471v311l596 283v6l-596 281v307z" />
<glyph horiz-adv-x="1669" d="M870 940q-53 0 -94 -23.5t-69.5 -62.5t-44 -89t-15.5 -103q0 -82 42 -133.5t122 -51.5q53 0 95 23.5t71 63.5t43 91.5t14 106.5q0 84 -42 131t-122 47zM1286 1102l-90 -494q-8 -41 -11 -60.5t-3 -31.5q0 -45 47 -45q39 0 76.5 28.5t65.5 78t45.5 115t17.5 138.5 q0 111 -40 204t-112 161t-174 105.5t-227 37.5q-135 0 -249 -48t-196 -131t-128 -195.5t-46 -243.5q0 -135 46 -247t130 -193.5t200 -126.5t257 -45q135 0 240.5 33.5t201.5 93.5l99 -109q-111 -82 -246 -130t-301 -48q-182 0 -331.5 57t-256 160.5t-165 245t-58.5 309.5 q0 162 60.5 304t168 246.5t254 165t318.5 60.5q154 0 285.5 -48t229 -134t151.5 -204t54 -255q0 -117 -31.5 -216t-88 -173t-133 -116t-164.5 -42q-66 0 -108 30t-58 62q-35 -37 -96.5 -68.5t-147.5 -31.5q-147 0 -237.5 96.5t-90.5 261.5q0 92 30 176.5t83 149t128 102 t165 37.5q84 0 142.5 -33.5t92.5 -86.5q0 8 2.5 23t4.5 30.5t4 28t2 16.5h188z" />
<glyph d="M96 1022h385v287h275v-287h385v-266h-385v-287h-275v287h-385v266zM104 356h1020v-274h-1020v274z" />
<glyph d="M82 1038h1034v-676h-297v402h-737v274z" />
<glyph d="M463 1282h311v-299h-311v299zM463 496h311v-299h-311v299zM109 877h1019v-275h-1019v275z" />
<glyph horiz-adv-x="573" d="M127 0v1075h319v-1075h-319zM127 1464h319v-262h-319v262z" />
<glyph d="M618 1470q168 0 275.5 -60t169 -164.5t85 -242t23.5 -290.5q0 -166 -24.5 -303.5t-86 -235.5t-169 -151.5t-273.5 -53.5t-273 53.5t-168.5 151.5t-86 235.5t-24.5 303.5q0 154 23.5 291t85 241.5t168.5 164.5t275 60zM618 231q125 0 172.5 114t47.5 360 q0 254 -46.5 378.5t-173.5 124.5t-173 -125t-46 -378q0 -123 10.5 -212.5t36 -147.5t67.5 -86t105 -28z" />
<glyph d="M211 961v225h33q143 0 234 65.5t124 184.5h283v-1436h-322v961h-352z" />
<glyph d="M82 0v260q68 51 119 92t103 82t112.5 89t144.5 116q135 109 186.5 197t51.5 174t-49.5 132t-135.5 46q-104 0 -151 -64.5t-47 -162.5h-322q0 117 36 212t103.5 160.5t165 101t219.5 35.5q121 0 217.5 -30.5t164 -88t103.5 -138t36 -181.5q0 -80 -24.5 -153.5t-69 -139 t-105.5 -126t-133 -115.5q-55 -43 -98 -74t-80 -57.5t-70 -51t-70 -55.5q35 2 59.5 2h59.5h539v-262h-1065z" />
<glyph d="M383 436q8 -100 64.5 -153.5t158.5 -53.5q111 0 165 55.5t54 145.5q0 109 -75.5 155t-212.5 46h-27v254q127 0 194.5 42t67.5 138q0 68 -46 107.5t-124 39.5q-74 0 -124 -41t-52 -129h-311q2 96 37.5 175t100 135.5t156 87t205.5 30.5q111 0 200 -28.5t152.5 -79.5 t98.5 -124t35 -159q0 -131 -62.5 -197.5t-167.5 -103.5v-4q49 -16 101.5 -42.5t94.5 -70t68.5 -104.5t26.5 -147q0 -98 -38 -180.5t-110.5 -140.5t-175 -90t-231.5 -32q-125 0 -225 32t-171 91.5t-111 147.5t-42 198h326z" />
<glyph d="M309 539q41 2 79 2h97h201v338q0 66 2 127l4 122h-4q-39 -70 -73.5 -127t-75.5 -122l-109 -164q-16 -27 -37.5 -56.5t-40.5 -56.5q-23 -30 -43 -63zM1200 279h-203v-279h-311v279h-670v249l611 908h370v-895h203v-262z" />
<glyph d="M414 416q12 -80 64 -131.5t145 -51.5q102 0 158.5 64.5t56.5 171.5q0 102 -56.5 166.5t-154.5 64.5q-74 0 -120 -33.5t-73 -82.5l-319 53l88 799h862v-267h-606q-10 -74 -19.5 -145.5t-21.5 -149.5h2q49 39 116.5 63t161.5 24q100 0 186.5 -34t150 -95.5t98 -149.5 t34.5 -199q0 -119 -38.5 -213t-111.5 -160.5t-174.5 -101.5t-224.5 -35q-119 0 -216 32t-168.5 90.5t-113.5 140t-50 180.5h344z" />
<glyph d="M629 698q-92 0 -153.5 -61.5t-61.5 -165.5q0 -106 61.5 -168.5t155.5 -62.5t154.5 61t60.5 166q0 109 -61.5 170t-155.5 61zM813 1100q-18 55 -55 91t-119 36q-111 0 -170 -104.5t-59 -272.5q14 14 41.5 32.5t65.5 34t87 26.5t111 11q94 0 177 -30.5t145.5 -90t98 -149.5 t35.5 -207q0 -109 -36.5 -201t-106.5 -158.5t-171 -104.5t-230 -38q-268 0 -412.5 178.5t-144.5 508.5q0 190 33.5 341.5t105.5 258t182.5 163t263.5 56.5q113 0 199 -32t146.5 -85t96.5 -123t50 -143z" />
<glyph d="M283 0q100 311 236 607t292 560q-2 0 -2 2q-66 -4 -118 -3t-122 1h-448v269h1018v-258q-125 -211 -251 -502t-251 -676h-354z" />
<glyph d="M618 1217q-88 0 -138 -48.5t-50 -119.5q0 -72 51 -121t137 -49t136.5 49t50.5 121t-50.5 120t-136.5 48zM616 633q-100 0 -161.5 -57.5t-61.5 -149.5q0 -86 59.5 -143.5t163.5 -57.5q100 0 160 56.5t60 144.5q0 92 -61 149.5t-159 57.5zM618 -33q-125 0 -226 31t-173 86 t-110.5 135t-38.5 178q0 266 295 369v2q-117 41 -177.5 121t-60.5 196q0 82 35 152t99.5 122t153.5 81.5t199 29.5q113 0 204 -29.5t155.5 -81.5t99.5 -122t35 -152q0 -117 -60.5 -196.5t-177.5 -120.5v-2q145 -53 220 -143.5t75 -225.5q0 -98 -39 -178t-110.5 -135 t-172 -86t-225.5 -31z" />
<glyph d="M608 752q92 0 153.5 61t61.5 166q0 106 -61.5 168.5t-155.5 62.5t-154.5 -61.5t-60.5 -165.5q0 -109 61.5 -170t155.5 -61zM424 348q18 -55 55 -91t119 -36q111 0 169 100.5t58 272.5q-16 -14 -42.5 -32.5t-64.5 -34t-87 -27t-109 -11.5q-94 0 -177 31t-144.5 92.5 t-97 150.5t-35.5 206q0 106 36.5 198.5t106.5 160t170 105t229 37.5q268 0 412.5 -179t144.5 -517q0 -190 -33.5 -340.5t-105.5 -254t-183.5 -159t-264.5 -55.5q-115 0 -201 32t-146.5 86t-97.5 123.5t-51 143.5z" />
<glyph horiz-adv-x="880" d="M535 100q-119 -16 -181.5 -43.5t-62.5 -74.5q0 -41 32.5 -66t86.5 -25q68 0 111.5 42t45.5 155v16zM590 -252q-2 27 -3 46.5t-1 35.5q-37 -39 -90.5 -68.5t-159.5 -29.5q-131 0 -213 62.5t-82 178.5q0 74 39 122t103.5 79t147.5 47.5t169 24.5q16 2 32.5 3t36.5 3 q-4 80 -33.5 121t-95.5 41q-57 0 -89 -31t-38 -82h-235q10 123 100 200t262 77q88 0 157 -18.5t114 -61.5t68.5 -113t23.5 -172v-285q0 -47 2 -90t6 -90h-221z" />
<glyph horiz-adv-x="980" d="M489 389q-78 0 -126 -62.5t-48 -166.5q0 -111 46.5 -177.5t127.5 -66.5q86 0 133.5 67.5t47.5 170.5q0 104 -47.5 169.5t-133.5 65.5zM86 -252v1098h244v-295q0 -23 -1 -41t-1 -35q29 35 88 69t155 34q80 0 145.5 -29t113 -82t73 -132t25.5 -177q0 -96 -27 -176 t-74 -136.5t-115.5 -87t-150.5 -30.5q-98 0 -157.5 37.5t-88.5 78.5v-96h-229z" />
<glyph horiz-adv-x="919" d="M881 43q-29 -141 -132.5 -227t-271.5 -86q-98 0 -177 31.5t-134 88t-85 134t-30 172.5q0 94 31 174t87 137t135 89t175 32q162 0 266.5 -82t133.5 -232h-246q-16 59 -54 91t-98 32q-82 0 -130 -64.5t-48 -174.5q0 -117 49 -176.5t135 -59.5q51 0 94.5 29t59.5 92h240z " />
<glyph horiz-adv-x="980" d="M487 389q-82 0 -129 -65.5t-47 -169.5q0 -102 47.5 -170t128.5 -68q86 0 132.5 66.5t46.5 177.5q0 104 -49.5 166.5t-129.5 62.5zM664 -252q0 23 -1 50.5t1 45.5q-29 -41 -89.5 -78.5t-158.5 -37.5q-164 0 -263.5 112.5t-99.5 309.5q0 98 26.5 177t75 135t114 86 t145.5 30q92 0 150.5 -34t86.5 -69v371h244v-1098h-231z" />
<glyph horiz-adv-x="935" d="M647 252q-10 78 -55 121t-117 43q-68 0 -116 -44t-60 -120h348zM881 -4q-37 -119 -141.5 -192.5t-266.5 -73.5q-96 0 -174 29.5t-133 86t-85 136t-30 178.5q0 94 31 173t87 135t135 88t173 32q100 0 178 -33t131.5 -91t80 -140t26.5 -183q0 -8 -1 -15t-1 -13v-15h-598 q10 -86 61.5 -136t124.5 -50q111 0 152 84h250z" />
<glyph horiz-adv-x="552" d="M150 590q0 135 78.5 203.5t217.5 68.5q29 0 48.5 -2t33.5 -6v-180q-16 4 -41 4q-96 0 -96 -103v-22h137v-176h-137v-629h-241v629h-109v176h109v37z" />
<glyph horiz-adv-x="985" d="M492 389q-82 0 -130.5 -61.5t-48.5 -155.5q0 -92 47.5 -150.5t131.5 -58.5q76 0 126 56.5t50 160.5q0 92 -48 150.5t-128 58.5zM330 -281q43 -98 149 -98t148.5 68.5t38.5 204.5q-33 -47 -96.5 -82t-155.5 -35q-82 0 -147.5 28.5t-113 81t-73 125t-25.5 162.5 q0 88 28 162t76 127t114.5 81.5t144.5 28.5q96 0 155.5 -32.5t90.5 -79.5q-4 23 -3 48.5t1 41.5h237v-680q0 -211 -110.5 -319.5t-317.5 -108.5q-174 0 -273.5 74.5t-123.5 201.5h256z" />
<glyph horiz-adv-x="929" d="M86 -252v1100h244v-174v-98.5t-2 -104.5q31 43 87 73.5t148 30.5q166 0 242 -131q31 -53 39 -115.5t8 -166.5v-414h-244v391q0 121 -26.5 182.5t-104.5 61.5q-147 0 -147 -221v-414h-244z" />
<glyph horiz-adv-x="415" d="M86 -252v807h244v-807h-244zM86 848h244v-201h-244v201z" />
<glyph horiz-adv-x="413" d="M86 846h242v-201h-242v201zM328 -250q0 -82 -13.5 -138t-46 -92t-87 -52.5t-134.5 -16.5q-57 0 -108 10v170q10 -2 15 -2h11q68 0 94.5 31t26.5 94v799h242v-803z" />
<glyph horiz-adv-x="876" d="M86 -252v1100h244v-645q20 29 56 82t73 107t68.5 100.5t41.5 62.5h297q-76 -90 -129 -154.5t-89 -108.5t-56.5 -69.5t-28.5 -38.5q37 -53 119 -158.5t215 -277.5h-309q-29 45 -64 95.5t-69 99.5q-18 27 -38 55.5t-37.5 55t-30.5 48t-19 33.5v-387h-244z" />
<glyph horiz-adv-x="415" d="M86 -252v1100h244v-1100h-244z" />
<glyph horiz-adv-x="1417" d="M590 -252v391q0 127 -23.5 186.5t-95.5 59.5q-74 0 -107.5 -56.5t-33.5 -166.5v-414h-244v682v62.5t-2 62.5h233v-104q27 47 83.5 85.5t154.5 38.5q86 0 143.5 -36.5t94.5 -96.5q27 47 91 90t171 43q57 0 108 -17t90 -59t62.5 -108.5t23.5 -165.5v-477h-243v391 q0 127 -23.5 186.5t-95.5 59.5q-76 0 -109.5 -56.5t-33.5 -166.5v-414h-244z" />
<glyph horiz-adv-x="929" d="M86 -252v682v62.5t-2 62.5h233v-104q27 47 86.5 85.5t157.5 38.5q84 0 145.5 -34.5t98.5 -96.5q31 -53 39 -115.5t8 -166.5v-414h-244v391q0 119 -26.5 182.5t-104.5 63.5q-147 0 -147 -223v-414h-244z" />
<glyph horiz-adv-x="972" d="M481 395q-86 0 -133 -65.5t-47 -173.5q0 -111 46 -174.5t136 -63.5t136.5 62.5t46.5 173.5q0 109 -46.5 175t-138.5 66zM483 586q98 0 179 -32t138.5 -88t89.5 -136t32 -176t-31 -174t-88.5 -134.5t-138 -87t-179.5 -30.5q-100 0 -180 30.5t-136 87t-87 135t-31 175.5 q0 96 31 175t88 136t136 88t177 31z" />
<glyph horiz-adv-x="980" d="M489 391q-78 0 -126 -63.5t-48 -169.5q0 -109 46.5 -175.5t127.5 -66.5q86 0 133.5 66.5t47.5 171.5q0 102 -47.5 169.5t-133.5 67.5zM326 553q0 -16 -1 -29.5t-1 -23.5v-27q29 35 90 68.5t157 33.5q80 0 145.5 -28.5t113 -81.5t73 -131t25.5 -178q0 -96 -27 -175 t-74 -136.5t-115.5 -88t-150.5 -30.5q-92 0 -147.5 29.5t-85.5 66.5q2 -35 2 -74v-90v-188h-244v1083h240z" />
<glyph horiz-adv-x="980" d="M487 389q-82 0 -129 -67.5t-47 -169.5q0 -104 47.5 -171t128.5 -67q86 0 132.5 66.5t46.5 175.5q0 106 -49.5 169.5t-129.5 63.5zM895 551v-1083h-244v213v65.5t2 77.5q-31 -37 -88 -68.5t-145 -31.5q-84 0 -151.5 29.5t-115 85t-74 133t-26.5 173.5q0 100 26.5 179 t75 134.5t114 85t145.5 29.5q92 0 151.5 -32.5t87.5 -67.5v78h242z" />
<glyph horiz-adv-x="604" d="M86 410v70.5t-2 74.5h227q0 -39 -1 -60.5t-1 -37.5l2 -21q33 72 89.5 105.5t131.5 33.5q35 0 52 -4v-219q-31 6 -66 6q-66 0 -102.5 -21.5t-56 -65.5t-24.5 -111.5t-5 -157.5v-254h-244v662z" />
<glyph horiz-adv-x="866" d="M289 23q25 -119 153 -119q53 0 90 19.5t37 53.5q0 35 -36.5 52.5t-96.5 33.5l-102 27q-133 35 -199.5 88t-66.5 160q0 115 94 183.5t268 68.5q156 0 256 -64.5t115 -197.5h-238q-14 43 -49 67.5t-90 24.5q-53 0 -82 -18.5t-29 -47.5q0 -37 42 -54t118 -38l55 -14 q158 -41 224.5 -95.5t66.5 -160.5q0 -121 -99 -190.5t-280 -69.5q-188 0 -286.5 71.5t-116.5 219.5h252z" />
<glyph horiz-adv-x="591" d="M27 379v174h120v215h242v-215h148v-174h-148v-275q0 -53 2 -90t11.5 -59.5t28 -32.5t52.5 -10q10 0 21.5 1t21.5 3v-178q-16 -4 -39.5 -6t-56.5 -2q-74 0 -127 13t-88 45t-51.5 87t-16.5 139v365h-120z" />
<glyph horiz-adv-x="921" d="M836 555v-682v-62.5t2 -62.5h-234v105q-29 -49 -85 -87t-152 -38q-168 0 -244 131q-29 53 -37 115.5t-8 166.5v414h244v-391q0 -121 24.5 -183.5t99.5 -62.5q78 0 112 56.5t34 166.5v414h244z" />
<glyph horiz-adv-x="845" d="M287 -250q-18 49 -38 105.5t-49.5 143.5t-75.5 219t-116 335h256l164 -559q18 86 48 185.5t63 209.5l49 164h252q-47 -135 -94.5 -268t-94.5 -269l-94 -268h-268z" />
<glyph horiz-adv-x="1310" d="M244 -250q-12 49 -28.5 105.5t-41 143.5t-62.5 219t-94 335h250q63 -258 92 -395.5t39 -177.5q6 37 13.5 71.5t19.5 93t33.5 154.5t58.5 254h264l136 -573l125 573h245l-227 -805h-293l-61 246q-16 72 -31.5 135.5t-28.5 122.5q-6 -35 -12 -64.5t-13 -59.5t-14.5 -62.5 t-17.5 -71.5l-61 -246h-289z" />
<glyph horiz-adv-x="827" d="M268 166l-250 387h271q31 -61 63.5 -119.5t65.5 -122.5q51 100 77.5 151.5t49.5 90.5h260l-246 -387q18 -29 40 -61.5t53.5 -81t75.5 -115t110 -160.5h-273q-53 96 -92 165t-59 107q-39 -70 -80 -143.5t-72 -128.5h-266z" />
<glyph horiz-adv-x="841" d="M207 -528q23 66 41 122q16 49 30.5 95.5t22.5 68.5q-66 170 -113 293t-81.5 215t-60.5 160t-46 127h260q41 -133 83 -264t87 -273q39 135 76 268.5t76 268.5h249l-376 -1083h-246z" />
<glyph horiz-adv-x="817" d="M55 -76q100 111 197.5 222.5t196.5 230.5q-43 -4 -85 -4h-96h-198v180h671v-176q-94 -104 -158.5 -178t-108.5 -124t-73.5 -85t-54.5 -64q51 2 96 2h103h219v-180h-709v176z" />
<glyph horiz-adv-x="989" d="M494 879q129 0 211.5 -46.5t130 -126t66 -185t18.5 -222.5q0 -129 -18.5 -234.5t-67 -179t-131 -114.5t-209.5 -41t-209 41t-130.5 114.5t-66.5 179t-18 234.5q0 117 18 222.5t65.5 185t129.5 126t211 46.5zM494 -68q96 0 130.5 87t34.5 274q0 190 -34.5 285.5 t-130.5 95.5t-130 -94.5t-34 -286.5q0 -186 35 -273.5t129 -87.5z" />
<glyph horiz-adv-x="700" d="M39 479v178h27q109 0 176 49.5t92 141.5h221v-1100h-250v731h-266z" />
<glyph horiz-adv-x="956" d="M66 -252v201q51 41 91 71.5t79.5 61.5t86 67.5t109.5 90.5q98 80 139 148.5t41 131.5t-36.5 98t-102.5 35q-78 0 -112.5 -49t-34.5 -125h-250q0 86 26.5 159t77.5 125t126 80.5t169 28.5q188 0 295 -90t107 -245q0 -125 -72 -224.5t-182 -185.5q-59 -43 -116.5 -86 t-123.5 -92q25 2 43 2h43h414v-203h-817z" />
<glyph horiz-adv-x="954" d="M301 90q6 -76 49 -117t117 -41q84 0 125 43t41 109q0 82 -57.5 117t-159.5 35h-23v196q96 0 148.5 32t52.5 103q0 51 -36 81t-93 30q-53 0 -91 -32t-40 -97h-242q4 150 102.5 240t278.5 90q172 0 273.5 -82t101.5 -217q0 -98 -45 -150.5t-125 -81.5q37 -12 75 -34.5 t69.5 -56.5t51 -80t19.5 -109q0 -154 -112.5 -246t-313.5 -92q-190 0 -302 93t-116 267h252z" />
<glyph horiz-adv-x="1001" d="M266 162h6q-2 -2 -2 -4h-2zM360 293q-23 -35 -50 -76t-38 -55q29 2 57.5 2h71.5h150v256v24.5t1 31t2 47t1 73.5l-4 2q-12 -23 -23.5 -43t-22.5 -40.5t-25.5 -43t-35.5 -53.5l-84 -125v0zM948 -39h-155v-213h-242v213h-510v195l465 692h287v-684h155v-203z" />
<glyph horiz-adv-x="950" d="M322 68q10 -61 50 -100.5t105 -39.5q78 0 121 49.5t43 128.5q0 76 -43 125.5t-117 49.5q-55 0 -90 -26t-55 -62l-246 38l68 615h659v-207h-461q-10 -53 -16 -106.5t-12 -110.5q37 27 87 44t122 17q78 0 144.5 -25.5t114.5 -72.5t74.5 -114.5t26.5 -153.5 q0 -90 -30.5 -163t-86 -123t-133.5 -76.5t-172 -26.5q-90 0 -164.5 24.5t-129 69.5t-87.5 107.5t-39 138.5h267z" />
<glyph horiz-adv-x="974" d="M496 279q-68 0 -114 -47.5t-46 -127.5q0 -78 46 -126t116 -48t115.5 47.5t45.5 124.5q0 82 -46.5 129.5t-116.5 47.5zM635 584q-14 41 -43 68.5t-88 27.5q-80 0 -125 -79t-47 -202q25 23 81 49.5t148 26.5q74 0 137.5 -22.5t110.5 -68.5t74.5 -114.5t27.5 -158.5 q0 -84 -27.5 -155t-80.5 -121t-131 -78.5t-178 -28.5q-205 0 -315.5 135t-110.5 387q0 145 25.5 262t80.5 198t140 124t202 43q88 0 153.5 -25t111.5 -66t74 -94t38 -110z" />
<glyph horiz-adv-x="851" d="M168 -252q80 242 182.5 467t216.5 424q-37 -2 -65.5 -2h-63.5h-395v211h782v-201q-98 -162 -193 -384t-192 -515h-272z" />
<glyph horiz-adv-x="962" d="M481 682q-66 0 -103.5 -37t-37.5 -90t39 -90t102 -37q66 0 104 37t38 90t-38 90t-104 37zM479 238q-72 0 -119 -44t-47 -114q0 -63 45 -107.5t121 -44.5t121 43t45 109q0 70 -46 114t-120 44zM481 -270q-193 0 -306.5 88t-113.5 241q0 203 222 285q-88 29 -133.5 89.5 t-45.5 150.5q0 63 27 116.5t76 93.5t117.5 62.5t152.5 22.5q86 0 157 -22.5t121 -62.5t76.5 -93.5t26.5 -116.5q0 -180 -178 -244q109 -41 165 -109.5t56 -171.5q0 -154 -113.5 -241.5t-306.5 -87.5z" />
<glyph horiz-adv-x="974" d="M477 332q70 0 116 46t46 124q0 80 -46 128t-118 48q-68 0 -114 -47t-46 -125q0 -82 47 -128t115 -46zM340 23q14 -41 42 -69t87 -28q82 0 126 76t46 201q-25 -23 -82 -49.5t-145 -26.5q-74 0 -137.5 23.5t-110.5 70.5t-75 116t-28 159q0 82 28 151.5t82 120.5t131 81 t175 30q207 0 317.5 -136.5t110.5 -394.5q0 -293 -107.5 -455.5t-342.5 -162.5q-88 0 -153.5 24.5t-113 65.5t-75 94t-39.5 111z" />
<glyph horiz-adv-x="989" d="M494 1749q129 0 211.5 -46t130 -126t66 -185.5t18.5 -222.5q0 -129 -18.5 -234.5t-67 -179t-131 -114.5t-209.5 -41t-209 41t-130.5 114.5t-66.5 179t-18 234.5q0 117 18 222.5t65.5 185.5t129.5 126t211 46zM494 803q96 0 130.5 87t34.5 273q0 190 -34.5 285.5 t-130.5 95.5t-130 -94t-34 -287q0 -186 35 -273t129 -87z" />
<glyph horiz-adv-x="700" d="M39 1350v178h27q109 0 176 49t92 141h221v-1100h-250v732h-266z" />
<glyph horiz-adv-x="956" d="M66 618v201q51 41 91 72t79.5 61.5t86 67.5t109.5 90q98 80 139 148.5t41 132.5q0 63 -36.5 98t-102.5 35q-78 0 -112.5 -49.5t-34.5 -124.5h-250q0 86 26.5 158.5t77.5 125t126 81t169 28.5q188 0 295 -90t107 -246q0 -125 -72 -224.5t-182 -185.5q-59 -43 -116.5 -86 t-123.5 -92q25 2 43 2h43h414v-203h-817z" />
<glyph horiz-adv-x="954" d="M301 961q6 -76 49 -117t117 -41q84 0 125 43t41 108q0 82 -57.5 117t-159.5 35h-23v197q96 0 148.5 31.5t52.5 103.5q0 51 -36 80.5t-93 29.5q-53 0 -91 -31.5t-40 -97.5h-242q4 150 102.5 240t278.5 90q172 0 273.5 -82t101.5 -217q0 -98 -45 -150.5t-125 -80.5 q37 -12 75 -35t69.5 -56.5t51 -80t19.5 -109.5q0 -154 -112.5 -246t-313.5 -92q-190 0 -302 93t-116 268h252z" />
<glyph horiz-adv-x="1001" d="M266 1032h6q-2 -2 -2 -4h-2zM360 1163q-23 -35 -50 -75.5t-38 -55.5q29 2 57.5 2h71.5h150v256v24.5t1 31t2 47t1 73.5l-4 2q-12 -23 -23.5 -43t-22.5 -40.5t-25.5 -43t-35.5 -53.5l-84 -125v0zM948 831h-155v-213h-242v213h-510v195l465 692h287v-684h155v-203z" />
<glyph horiz-adv-x="946" d="M319 938q10 -61 50.5 -100t105.5 -39q78 0 121 49t43 129q0 76 -43 125t-117 49q-55 0 -90 -25.5t-55 -62.5l-246 39l68 614h659v-207h-461q-10 -53 -16 -106t-12 -111q37 27 87 44.5t122 17.5q78 0 144 -25.5t114.5 -73t75 -115t26.5 -153.5q0 -90 -30.5 -162.5 t-86 -123t-133.5 -77t-172 -26.5q-90 0 -165 24.5t-129 69.5t-87 107.5t-39 138.5h266z" />
<glyph horiz-adv-x="972" d="M496 1149q-68 0 -114 -47t-46 -127q0 -78 46 -126t116 -48t115.5 47t45.5 125q0 82 -46.5 129t-116.5 47zM635 1454q-14 41 -43 68.5t-88 27.5q-80 0 -125 -78.5t-47 -201.5q25 23 81 49.5t148 26.5q74 0 137.5 -23t110.5 -69t74.5 -114.5t27.5 -158.5 q0 -84 -27.5 -154.5t-80.5 -121t-131 -79t-178 -28.5q-205 0 -315.5 135t-110.5 387q0 145 25.5 262t80.5 198t140 124t202 43q88 0 153.5 -24.5t111.5 -65.5t74 -94.5t38 -110.5z" />
<glyph horiz-adv-x="849" d="M168 618q80 242 182.5 467.5t216.5 423.5q-37 -2 -65.5 -2h-63.5h-395v211h782v-200q-98 -162 -193 -384.5t-192 -515.5h-272z" />
<glyph horiz-adv-x="962" d="M481 1552q-66 0 -103.5 -36.5t-37.5 -90.5q0 -53 39 -90t102 -37q66 0 104 37t38 90t-38 90t-104 37zM479 1108q-72 0 -119 -44t-47 -114q0 -63 45 -107t121 -44t121 43t45 108q0 70 -46 114t-120 44zM481 600q-193 0 -306.5 88t-113.5 242q0 203 222 284 q-88 29 -133.5 89.5t-45.5 150.5q0 63 27 116.5t76 93.5t117.5 62.5t152.5 22.5q86 0 157 -22.5t121 -62.5t76.5 -93t26.5 -117q0 -180 -178 -244q109 -41 165 -109.5t56 -170.5q0 -154 -113.5 -242t-306.5 -88z" />
<glyph horiz-adv-x="976" d="M479 1202q70 0 116 46t46 124q0 80 -46 128t-118 48q-68 0 -114 -47t-46 -125q0 -82 47 -128t115 -46zM342 893q14 -41 42 -68.5t87 -27.5q82 0 126 75.5t46 200.5q-25 -23 -82 -49.5t-145 -26.5q-74 0 -137.5 23.5t-110.5 71t-74.5 116t-27.5 158.5q0 82 27.5 151.5 t81.5 121t131 81t175 29.5q207 0 317.5 -136t110.5 -394q0 -293 -107.5 -456t-342.5 -163q-88 0 -153.5 24.5t-113 65.5t-75 94.5t-39.5 110.5z" />
<glyph horiz-adv-x="880" d="M535 971q-119 -16 -181.5 -44t-62.5 -75q0 -41 32.5 -65.5t86.5 -24.5q68 0 111.5 42t45.5 154v17zM590 618q-2 27 -3 46.5t-1 35.5q-37 -39 -90.5 -68.5t-159.5 -29.5q-131 0 -213 62.5t-82 179.5q0 74 39 122t103.5 78.5t147.5 47t169 24.5q16 2 32.5 3t36.5 3 q-4 80 -33.5 121t-95.5 41q-57 0 -89 -30.5t-38 -82.5h-235q10 123 100 200t262 77q88 0 157 -18.5t114 -61.5t68.5 -112.5t23.5 -172.5v-284q0 -47 2 -90t6 -91h-221z" />
<glyph horiz-adv-x="980" d="M489 1260q-78 0 -126 -62.5t-48 -167.5q0 -111 46.5 -177.5t127.5 -66.5q86 0 133.5 68t47.5 170q0 104 -47.5 170t-133.5 66zM86 618v1098h244v-295q0 -23 -1 -41t-1 -34q29 35 88 68.5t155 33.5q80 0 145.5 -28.5t113 -82t73 -132.5t25.5 -177q0 -96 -27 -176 t-74 -136.5t-115.5 -87t-150.5 -30.5q-98 0 -157.5 38t-88.5 79v-97h-229z" />
<glyph horiz-adv-x="919" d="M881 913q-29 -141 -132.5 -227t-271.5 -86q-98 0 -177 32t-134 88t-85 134t-30 172t31 174t87 137.5t135 89t175 31.5q162 0 266.5 -82t133.5 -231h-246q-16 59 -54 91t-98 32q-82 0 -130 -64.5t-48 -175.5q0 -117 49 -176t135 -59q51 0 94.5 28.5t59.5 91.5h240z" />
<glyph horiz-adv-x="980" d="M487 1260q-82 0 -129 -66t-47 -170q0 -102 47.5 -170t128.5 -68q86 0 132.5 67t46.5 177q0 104 -49.5 167t-129.5 63zM664 618q0 23 -1 50.5t1 46.5q-29 -41 -89.5 -79t-158.5 -38q-164 0 -263.5 112.5t-99.5 309.5q0 98 26.5 177t75 135.5t114 86t145.5 29.5 q92 0 150.5 -34t86.5 -68v370h244v-1098h-231z" />
<glyph horiz-adv-x="933" d="M647 1122q-10 78 -55 121t-117 43q-68 0 -116 -44t-60 -120h348zM881 866q-37 -119 -141.5 -192.5t-266.5 -73.5q-96 0 -174 29.5t-133 86t-85 136.5t-30 178q0 94 31 173t87 135.5t135 88t173 31.5q100 0 178 -32.5t131.5 -91t80 -140.5t26.5 -182q0 -8 -1 -15.5 t-1 -13.5v-14h-598q10 -86 61.5 -136.5t124.5 -50.5q111 0 152 84h250z" />
<glyph horiz-adv-x="550" d="M147 1460q0 135 79 204t218 69q29 0 48.5 -2t33.5 -7v-180q-16 4 -41 4q-96 0 -96 -102v-23h137v-176h-137v-629h-242v629h-108v176h108v37z" />
<glyph horiz-adv-x="983" d="M489 1260q-82 0 -130 -61.5t-48 -156.5q0 -92 47.5 -150t130.5 -58q76 0 126.5 56t50.5 161q0 92 -48.5 150.5t-128.5 58.5zM328 590q43 -98 149 -98t148.5 68.5t38.5 203.5q-33 -47 -96.5 -82t-155.5 -35q-82 0 -147.5 29t-113 81t-73 124.5t-25.5 162.5q0 88 28 162 t76 127t114.5 82t144.5 29q96 0 155.5 -33t90.5 -80q-4 23 -3.5 48.5t0.5 41.5h238v-680q0 -211 -110.5 -319.5t-317.5 -108.5q-174 0 -273.5 75t-123.5 202h256z" />
<glyph horiz-adv-x="929" d="M86 618v1100h244v-174v-98t-2 -105q31 43 87 74t148 31q166 0 242 -131q31 -53 39 -115.5t8 -167.5v-414h-244v392q0 121 -26.5 182t-104.5 61q-147 0 -147 -221v-414h-244z" />
<glyph horiz-adv-x="415" d="M86 618v807h244v-807h-244zM86 1718h244v-200h-244v200z" />
<glyph horiz-adv-x="413" d="M86 1716h242v-200h-242v200zM328 621q0 -82 -13.5 -138.5t-46 -92.5t-87 -52t-134.5 -16q-57 0 -108 10v170q10 -2 15 -2h11q68 0 94.5 30.5t26.5 94.5v798h242v-802z" />
<glyph horiz-adv-x="876" d="M86 618v1100h244v-645q20 29 56 82t73 107.5t68.5 100.5t41.5 62h297q-76 -90 -129 -154.5t-89 -108.5t-56.5 -69.5t-28.5 -37.5q37 -53 119 -158.5t215 -278.5h-309q-29 45 -64 95.5t-69 99.5q-18 27 -38 55.5t-37.5 55t-30.5 48t-19 34.5v-388h-244z" />
<glyph horiz-adv-x="415" d="M86 618v1100h244v-1100h-244z" />
<glyph horiz-adv-x="1417" d="M590 618v392q0 127 -23.5 186t-95.5 59q-74 0 -107.5 -56t-33.5 -167v-414h-244v682v63t-2 62h233v-104q27 47 83.5 86t154.5 39q86 0 143.5 -37t94.5 -96q27 47 91 90t171 43q57 0 108 -17.5t90 -59.5t62.5 -108.5t23.5 -164.5v-478h-243v392q0 127 -23.5 186t-95.5 59 q-76 0 -109.5 -56t-33.5 -167v-414h-244z" />
<glyph horiz-adv-x="929" d="M86 618v682v63t-2 62h233v-104q27 47 86.5 86t157.5 39q84 0 145.5 -35t98.5 -96q31 -53 39 -115.5t8 -167.5v-414h-244v392q0 119 -26.5 182t-104.5 63q-147 0 -147 -223v-414h-244z" />
<glyph horiz-adv-x="972" d="M481 1266q-86 0 -133 -65.5t-47 -174.5q0 -111 46 -174.5t136 -63.5t136.5 62.5t46.5 173.5q0 109 -46.5 175.5t-138.5 66.5zM483 1456q98 0 179 -31.5t138.5 -88t89.5 -136.5t32 -176t-31 -174t-88.5 -134.5t-138 -87t-179.5 -30.5q-100 0 -180 30.5t-136 87t-87 135.5 t-31 175t31 175t88 136.5t136 88t177 30.5z" />
<glyph horiz-adv-x="980" d="M489 1262q-78 0 -126 -63.5t-48 -170.5q0 -109 46.5 -175.5t127.5 -66.5q86 0 133.5 67t47.5 171q0 102 -47.5 170t-133.5 68zM326 1423q0 -16 -1 -29.5t-1 -23.5v-27q29 35 90 69t157 34q80 0 145.5 -28.5t113 -82t73 -131.5t25.5 -178q0 -96 -27 -175t-74 -136.5 t-115.5 -88t-150.5 -30.5q-92 0 -147.5 29.5t-85.5 66.5q2 -35 2 -73.5v-90.5v-188h-244v1083h240z" />
<glyph horiz-adv-x="980" d="M487 1260q-82 0 -129 -68t-47 -170q0 -104 47.5 -171t128.5 -67q86 0 132.5 67t46.5 175q0 106 -49.5 170t-129.5 64zM895 1421v-1083h-244v213v65.5t2 77.5q-31 -37 -88 -68.5t-145 -31.5q-84 0 -151.5 29.5t-115 85t-74 133.5t-26.5 174q0 100 26.5 179t75 134t114 85 t145.5 30q92 0 151.5 -33t87.5 -68v78h242z" />
<glyph horiz-adv-x="604" d="M86 1280v70.5t-2 74.5h227q0 -39 -1 -60.5t-1 -37.5l2 -20q33 72 89.5 105.5t131.5 33.5q35 0 52 -4v-219q-31 6 -66 6q-66 0 -102.5 -21.5t-56 -65.5t-24.5 -111.5t-5 -158.5v-254h-244v662z" />
<glyph horiz-adv-x="864" d="M289 893q25 -119 153 -119q53 0 90 19.5t37 54.5t-36.5 52.5t-96.5 33.5l-102 27q-133 35 -199.5 88t-66.5 159q0 115 94 183.5t268 68.5q156 0 256 -64.5t115 -197.5h-238q-14 43 -49 67.5t-90 24.5q-53 0 -82 -18.5t-29 -46.5q0 -37 42 -54.5t118 -37.5l55 -15 q158 -41 224.5 -95t66.5 -161q0 -121 -99 -190.5t-280 -69.5q-188 0 -286.5 71.5t-116.5 219.5h252z" />
<glyph horiz-adv-x="589" d="M25 1249v174h120v215h242v-215h148v-174h-148v-274q0 -53 2 -90t11.5 -59.5t27.5 -33t53 -10.5q10 0 21.5 1t21.5 3v-178q-16 -4 -39.5 -6t-56.5 -2q-74 0 -127 13.5t-88 45t-51.5 87t-16.5 139.5v364h-120z" />
<glyph horiz-adv-x="921" d="M836 1425v-682v-62.5t2 -62.5h-234v105q-29 -49 -85 -87t-152 -38q-168 0 -244 131q-29 53 -37 115.5t-8 167.5v413h244v-391q0 -121 24.5 -183.5t99.5 -62.5q78 0 112 56.5t34 167.5v413h244z" />
<glyph horiz-adv-x="841" d="M285 621q-18 49 -38 105t-49.5 143t-75.5 219.5t-116 334.5h256l164 -559q18 86 48 185.5t63 210.5l49 163h252q-47 -135 -94.5 -268t-94.5 -268l-94 -269h-268z" />
<glyph horiz-adv-x="1308" d="M242 621q-12 49 -28.5 105t-41.5 143t-62.5 219.5t-93.5 334.5h250q63 -258 92 -395t39 -178q6 37 13.5 71.5t19.5 93t33.5 155t58.5 253.5h264l136 -573l125 573h245l-227 -805h-293l-61 246q-16 72 -31.5 135.5t-28.5 122.5q-6 -35 -12 -64.5t-13.5 -59t-14.5 -62.5 t-17 -72l-62 -246h-288z" />
<glyph horiz-adv-x="825" d="M266 1036l-250 387h271q31 -61 63.5 -119.5t65.5 -121.5q51 100 77.5 151t49.5 90h260l-246 -387q18 -29 39.5 -61.5t53.5 -80.5t76 -114.5t110 -161.5h-273q-53 96 -92 165t-59 108q-39 -70 -80 -143.5t-72 -129.5h-266z" />
<glyph horiz-adv-x="841" d="M207 342q23 66 41 123q16 49 30.5 95t22.5 69q-66 170 -113 292.5t-81.5 215t-60.5 160t-46 126.5h260q41 -133 83 -264t87 -272q39 135 76 268t76 268h249l-376 -1083h-246z" />
<glyph horiz-adv-x="817" d="M57 795q100 111 197.5 222t196.5 230q-43 -4 -85 -4h-96h-198v180h671v-176q-94 -104 -158.5 -178t-108.5 -124t-73.5 -85t-54.5 -63q51 2 96 2h103h219v-181h-709v177z" />
<glyph d="M618 1499q172 0 282 -61.5t172.5 -168t87 -246.5t24.5 -296q0 -170 -24.5 -310.5t-89 -239.5t-174.5 -153.5t-278 -54.5q-170 0 -278.5 54.5t-173 153.5t-89 239.5t-24.5 310.5q0 156 24.5 296t87 246.5t172 168t281.5 61.5zM618 236q129 0 176.5 116.5t47.5 366.5 q0 260 -46 387t-178 127q-131 0 -177 -127t-46 -387q0 -250 47 -366.5t176 -116.5z" />
<glyph d="M201 979v231h39q147 0 239 66.5t127 187.5h287v-1464h-328v979h-364z" />
<glyph d="M72 0v264q70 53 122 94t104 83t113.5 91.5t147.5 118.5q137 113 190.5 202t53.5 177t-50.5 135t-138.5 47q-106 0 -154 -65.5t-48 -167.5h-328q0 119 37 215t105.5 163.5t167 104.5t224.5 37q123 0 221.5 -31.5t167 -90t105.5 -140.5t37 -184q0 -164 -95.5 -298 t-242.5 -247q-55 -43 -99 -75t-82 -59.5t-72 -53t-71 -56.5q35 2 60.5 2h60.5h549v-266h-1085z" />
<glyph d="M379 444q8 -102 65.5 -156.5t161.5 -54.5q113 0 168 56.5t55 148.5q0 111 -76.5 158t-217.5 47h-27v260q129 0 198.5 42t69.5 140q0 70 -48 111t-126 41q-76 0 -127 -42t-53 -132h-318q2 98 38 179t102.5 137.5t160 88t209.5 31.5q113 0 204 -28.5t155.5 -81t100.5 -126 t36 -161.5q0 -133 -63.5 -202t-169.5 -105v-4q51 -16 103 -44t95 -72t69.5 -106.5t26.5 -150.5q0 -102 -38.5 -185t-112.5 -141.5t-178.5 -91.5t-235.5 -33q-127 0 -229.5 32t-174 93.5t-112.5 149.5t-43 202h332z" />
<glyph d="M303 549q41 2 81 2h99h205v346q0 66 2 128t4 126h-4q-41 -72 -75.5 -130t-77.5 -124l-111 -168q-16 -27 -37.5 -57.5t-40.5 -59.5q-22 -32 -45 -63zM1212 285h-206v-285h-318v285h-684v254l623 925h379v-913h206v-266z" />
<glyph d="M410 424q12 -82 65 -134t148 -52q104 0 161.5 65.5t57.5 175.5q0 104 -57.5 170t-157.5 66q-76 0 -122 -35t-75 -84l-326 53l91 815h878v-270h-618q-10 -76 -19.5 -148.5t-21.5 -152.5h2q51 39 119.5 63.5t164.5 24.5q104 0 191.5 -34t151 -97.5t99.5 -153.5t36 -202 q0 -121 -40 -217.5t-114 -164t-177.5 -103.5t-228.5 -36q-121 0 -220 33t-171.5 92.5t-115.5 142.5t-52 183h351z" />
<glyph d="M629 711q-94 0 -156.5 -62.5t-62.5 -171.5t62.5 -172t158.5 -63t157.5 62.5t61.5 168.5q0 111 -62.5 174.5t-158.5 63.5zM817 1120q-18 55 -56 92t-122 37q-55 0 -99 -28.5t-74 -78.5t-45 -121t-15 -157q31 31 108.5 69t202.5 38q96 0 181 -31t147.5 -92.5t99.5 -152.5 t37 -210q0 -111 -37 -205t-108.5 -161.5t-175 -106.5t-234.5 -39q-274 0 -421 181.5t-147 517.5q0 195 35 349.5t107.5 263t185.5 165.5t268 57q117 0 204 -32.5t148.5 -86t98.5 -124t51 -146.5z" />
<glyph d="M274 0q102 317 240.5 619.5t298.5 570.5q-2 0 -2 2q-68 -4 -121 -3t-125 1h-456v274h1038v-262q-129 -217 -256 -513t-256 -689h-361z" />
<glyph d="M618 1241q-90 0 -141 -50t-51 -122t52 -122t140 -50t139.5 50t51.5 122t-51.5 122t-139.5 50zM616 645q-102 0 -164.5 -58.5t-62.5 -152.5q0 -88 61.5 -146.5t165.5 -58.5q102 0 163 57.5t61 147.5q0 94 -62 152.5t-162 58.5zM618 -33q-127 0 -230 31t-176 88t-113 138 t-40 182q0 272 299 374v4q-117 41 -179 122t-62 202q0 82 35.5 153.5t101 125t157 83t203.5 29.5q115 0 208 -29.5t159 -83t101.5 -125t35.5 -153.5q0 -121 -62.5 -202t-178.5 -122v-4q147 -53 223 -145t76 -229q0 -100 -40 -181.5t-113 -138.5t-175.5 -88t-229.5 -31z" />
<glyph d="M606 758q94 0 156.5 62.5t62.5 170.5q0 109 -62.5 172.5t-158.5 63.5t-157.5 -62.5t-61.5 -169.5q0 -111 62.5 -174t158.5 -63zM418 346q18 -55 56 -92t122 -37q113 0 172 102.5t59 278.5q-16 -16 -42.5 -34.5t-65.5 -34t-89 -26.5t-112 -11q-96 0 -180 31.5t-147.5 93 t-99.5 152.5t-36 212q0 109 38 202t108.5 161.5t173 107.5t233.5 39q274 0 421 -182.5t147 -526.5q0 -195 -35 -348t-107.5 -258.5t-185.5 -162t-270 -56.5q-117 0 -205 33t-149.5 87t-99.5 124.5t-52 146.5z" />
<glyph horiz-adv-x="1306" d="M430 719q0 -96 6 -172l244 684q-6 2 -13.5 2h-13.5q-131 0 -177 -127t-46 -387zM653 236q129 0 176.5 116.5t47.5 366.5q0 72 -3.5 134t-11.5 116l-258 -729q10 -4 22.5 -4h26.5zM653 1499q172 0 281.5 -61.5t172 -168t87.5 -246.5t25 -296q0 -170 -25 -310.5 t-89.5 -239.5t-174 -153.5t-277.5 -54.5q-170 0 -278.5 54.5t-173 153.5t-89 239.5t-24.5 310.5q0 156 24.5 296t87 246.5t172 168t281.5 61.5z" />
</font>
</defs>
</svg>
